<svg width="27" height="27" xmlns="http://www.w3.org/2000/svg">

 <g width="0" height="0">
  <title width="0" height="0">Layer 1</title>
  <path transform="null" fill="#dfefdf" id="imagebot_2" d="M 0.26843534074966213 15.935325182501236 C 0.26843534074966213 17.027910269323748 0.593569255697172 18.003432668272417 1.253689628469389 18.861892379347246 S 2.7611286886805697 20.29591030580179 3.7956456907862837 20.578811801496904 L 3.145377860891264 22.237199879709642 C 3.096115146505278 22.373773015562456 3.145377860891264 22.45181480747835 3.283313461172025 22.45181480747835 L 5.381905094015043 22.45181480747835 L 3.972991462575834 26.558764107052248 L 4.258715206014555 26.558764107052248 L 8.554423900472562 21.03730732900278 C 8.593834071981352 20.998286433044832 8.593834071981352 20.9495103130974 8.574128986226958 20.900734193149965 C 8.554423900472562 20.851958073202532 8.505161186086577 20.83244762522356 8.436193385946195 20.83244762522356 L 6.278486495839994 20.83244762522356 L 8.731769672262113 16.296268470112246 C 8.800737472402494 16.159695334259432 8.761327300893704 16.08165354234354 8.593834071981352 16.08165354234354 L 5.677481380330962 16.08165354234354 C 5.5888084944361855 16.08165354234354 5.509988151418608 16.13042966229097 5.450872894155424 16.22798190218584 L 4.396650806295316 19.037486411158007 C 3.6872677191371133 18.861892379347246 3.096115146505278 18.491193867746752 2.6428981741542033 17.90588042837755 C 2.179828658925932 17.330322212997835 1.9532201727503948 16.676722205702227 1.9532201727503948 15.935325182501236 C 1.9532201727503948 15.115886367384356 2.2290913733119178 14.403755016151827 2.780833774434965 13.808686352793138 C 3.3325761755580112 13.21361768943445 4.0321067198390175 12.86242962581293 4.8597203215235885 12.764877385918062 L 5.362200008260649 12.735611713949602 C 5.480430522787016 12.735611713949602 5.549398322927396 12.686835594002169 5.578955951558989 12.599038578096788 L 5.647923751699369 12.023480362717075 C 5.756301723348539 10.96991617185251 6.199666152822416 10.082190788809221 6.997722125875395 9.370059437576693 S 8.731769672262113 8.296984798733156 9.815549388753812 8.296984798733156 C 10.889476562368314 8.296984798733156 11.825468135702055 8.657928086344164 12.63337665163223 9.370059437576693 S 13.904354682790677 10.96991617185251 14.012732654439848 12.023480362717075 L 14.091552997457425 12.599038578096788 C 14.091552997457425 12.706346041981142 14.150668254720609 12.764877385918062 14.268898769246976 12.764877385918062 L 15.855158172475734 12.764877385918062 C 16.732034488546294 12.764877385918062 17.49068029009048 13.077044553581636 18.131095577108304 13.701378888908785 S 19.08679223619644 15.067110247436922 19.08679223619644 15.935325182501236 C 19.08679223619644 16.78402966958658 18.79121594988052 17.515671468798082 18.200063377248686 18.14000580412523 S 16.899527717458646 19.096017755094927 16.052209030019682 19.14479387504236 C 15.924125972616116 19.14479387504236 15.855158172475734 19.20332521897928 15.855158172475734 19.32038790685312 L 15.855158172475734 20.627587921444338 C 15.855158172475734 20.73489538532869 15.924125972616116 20.79342672926561 16.052209030019682 20.79342672926561 C 16.919232803213042 20.77391628128664 17.71728877626602 20.539790905538958 18.43652440630142 20.09105060202257 C 19.15576003633682 19.65206552249567 19.72720752321426 19.05699685913698 20.150866866933747 18.325355059925478 S 20.78142961107437 16.793784893576067 20.78142961107437 15.935325182501236 C 20.78142961107437 15.223193831268707 20.64349401079361 14.5695938239731 20.357770267354887 13.964769936624926 C 21.10656352602188 13.028268433634203 21.480960155355376 11.955193794790667 21.480960155355376 10.755301244083803 C 21.480960155355376 9.828554965082567 21.244499126302642 8.970095254007738 20.78142961107437 8.179922110859316 C 20.3183600958461 7.389748967710893 19.687797351705473 6.765414632383745 18.889741378652495 6.3069191048778706 C 18.091685405599513 5.848423577371996 17.224661632406157 5.614298201624315 16.288670059072416 5.614298201624315 C 15.579286971914215 5.614298201624315 14.889608970510402 5.760626561466616 14.21963605486099 6.0532832811512165 C 13.549663139211576 6.345940000835817 12.978215652334136 6.7556594083942585 12.485588508474272 7.272686279837053 C 11.687532535421292 6.853211648289125 10.800803676473539 6.638596720520418 9.805696845876616 6.638596720520418 C 8.406635757314604 6.638596720520418 7.165215354787748 7.067826576057833 6.091288181173247 7.926286287132662 S 4.317830463277738 9.87733108503 4.02225417696182 11.213796771589678 C 2.9286219175929245 11.467432595316332 2.0320405157679726 12.03323558670656 1.3226574286097696 12.911205745760363 C 0.6231268843287638 13.808686352793138 0.26843534074966213 14.813474423710268 0.26843534074966213 15.935325182501236 z M 8.032239127981107 25.90516409975664 C 8.032239127981107 26.071002907577913 8.081501842367093 26.2270864914097 8.189879814016262 26.383170075241487 C 8.298257785665434 26.539253659073275 8.455898471700591 26.64656112295763 8.672654414998929 26.70509246689455 C 8.761327300893704 26.724602914873522 8.840147643911283 26.73435813886301 8.909115444051665 26.73435813886301 C 9.332774787771147 26.73435813886301 9.598793445455474 26.539253659073275 9.697318874227445 26.13928947550432 L 9.82540193163101 25.563731260124605 C 9.884517188894193 25.31009543639795 9.854959560262602 25.095480508629244 9.74658158861343 24.90037602883951 C 9.628351074087064 24.705271549049776 9.460857845174711 24.588208861175936 9.224396816121976 24.539432741228502 C 9.017493415700834 24.471146173302095 8.810590015279692 24.49065662128107 8.603686614858548 24.60771930915491 C 8.396783214437406 24.72478199702875 8.268700157033841 24.890620804850023 8.19973235689346 25.10523573261873 L 8.071649299489897 25.680793947998446 C 8.042091670858305 25.797856635872286 8.032239127981107 25.87589842778818 8.032239127981107 25.90516409975664 z M 8.554423900472562 3.9461548994220905 C 8.554423900472562 4.1705250511802845 8.633244243490141 4.365629530970018 8.800737472402494 4.531468338791292 L 9.441152759420318 5.175313122097414 C 9.598793445455474 5.331396705929201 9.776139217245024 5.409438497845095 9.983042617666166 5.428948945824068 C 10.189946018087308 5.458214617792528 10.386996875631255 5.389928049866121 10.5840477331752 5.204578794065874 C 10.781098590719145 5.028984762255114 10.879624019491118 4.824125058475893 10.879624019491118 4.580244458738726 C 10.879624019491118 4.355874306980532 10.800803676473539 4.160769827190799 10.633310447561186 3.9949310193695236 L 10.012600246297758 3.351086236063402 C 9.854959560262602 3.1950026522316155 9.657908702718656 3.1169608603157215 9.421447673665922 3.1169608603157215 C 9.17513410173599 3.1169608603157215 8.968230701314848 3.1950026522316155 8.800737472402494 3.351086236063402 C 8.643096786367337 3.5266802678741627 8.554423900472562 3.721784747663897 8.554423900472562 3.9461548994220905 z M 8.810590015279692 23.076149142805498 C 8.810590015279692 23.300519294563692 8.889410358297269 23.48586855036394 9.047051044332425 23.641952134195726 C 9.204691730367582 23.798035718027513 9.401742587911528 23.876077509943407 9.618498531209868 23.876077509943407 C 9.854959560262602 23.876077509943407 10.04215787492935 23.798035718027513 10.199798560964506 23.651707358185213 C 10.357439246999663 23.495623774353426 10.426407047140044 23.31027451855318 10.426407047140044 23.076149142805498 C 10.426407047140044 22.851778991047304 10.347586704122465 22.666429735247057 10.199798560964506 22.51034615141527 C 10.04215787492935 22.354262567583483 9.854959560262602 22.285975999657076 9.618498531209868 22.285975999657076 S 9.194839187490386 22.36401779157297 9.03719850145523 22.51034615141527 C 8.889410358297269 22.65667451125757 8.810590015279692 22.851778991047304 8.810590015279692 23.076149142805498 z M 9.421447673665922 20.86171329719202 C 9.411595130788724 21.00804165703432 9.451005302297514 21.164125240866106 9.559383273946684 21.320208824697893 C 9.657908702718656 21.47629240852968 9.805696845876616 21.573844648424547 10.00274770342056 21.612865544382494 C 10.229356189596098 21.671396888319414 10.43625959001724 21.65188644034044 10.633310447561186 21.554334200445574 S 10.958444362508695 21.27143270475046 11.037264705526274 21.00804165703432 L 11.293430820333402 20.130071497980516 C 11.362398620473783 19.91545657021181 11.34269353471939 19.71059686643259 11.22446302019302 19.515492386642855 C 11.106232505666654 19.32038790685312 10.938739276754301 19.193569994989794 10.702278247701566 19.125283427063387 C 10.485522304403226 19.05699685913698 10.278618903982084 19.08626253110544 10.071715503560942 19.20332521897928 S 9.736729045736235 19.49598193866388 9.667761245595853 19.720352090422075 L 9.441152759420318 20.598322249475878 C 9.431300216543118 20.67636404139177 9.421447673665922 20.76416105729715 9.421447673665922 20.86171329719202 z M 12.140749507772366 22.959086454931658 C 12.140749507772366 23.12492526275293 12.190012222158353 23.28100884658472 12.288537650930326 23.42733720642702 C 12.387063079702298 23.57366556626932 12.534851222860258 23.680973030153673 12.7417546232814 23.739504374090593 C 12.771312251912992 23.739504374090593 12.82057496629898 23.74925959808008 12.87969022356216 23.759014822069567 C 12.938805480825346 23.768770046059053 12.988068195211332 23.77852527004854 13.017625823842923 23.77852527004854 C 13.421580081808012 23.77852527004854 13.667893653737943 23.563910342279833 13.766419082509916 23.13468048674242 L 13.904354682790677 22.549367047373217 C 13.973322482931058 22.344507343593996 13.953617397176664 22.139647639814775 13.835386882650297 21.934787936035555 C 13.71715636812393 21.729928232256334 13.549663139211576 21.603110320393007 13.332907195913236 21.5348237524666 C 13.086593623983305 21.47629240852968 12.859985137807767 21.495802856508654 12.662934280263823 21.612865544382494 C 12.465883422719878 21.729928232256334 12.327947822439116 21.895767040077608 12.258980022298735 22.12989241582529 L 12.17030713640396 22.705450631205004 C 12.17030713640396 22.71520585519449 12.17030713640396 22.754226751152437 12.160454593526762 22.812758095089357 C 12.150602050649566 22.881044663015764 12.140749507772366 22.92006555897371 12.140749507772366 22.959086454931658 z M 12.869837680684965 20.071540154043596 C 12.869837680684965 20.29591030580179 12.948658023702542 20.481259561602037 13.106298709737699 20.627587921444338 C 13.254086852895659 20.783671505276125 13.441285167562405 20.86171329719202 13.677746196615141 20.86171329719202 C 13.914207225667875 20.86171329719202 14.101405540334623 20.783671505276125 14.25904622636978 20.637343145433825 C 14.416686912404936 20.481259561602037 14.485654712545317 20.29591030580179 14.485654712545317 20.071540154043596 C 14.485654712545317 19.837414778295916 14.406834369527738 19.65206552249567 14.25904622636978 19.49598193866388 C 14.101405540334623 19.339898354832094 13.914207225667875 19.271611786905687 13.677746196615141 19.271611786905687 C 13.441285167562405 19.271611786905687 13.254086852895659 19.34965357882158 13.096446166860503 19.49598193866388 C 12.948658023702542 19.65206552249567 12.869837680684965 19.837414778295916 12.869837680684965 20.071540154043596 z M 13.884649597036283 8.267719126764696 C 14.5447699698085 7.643384791437549 15.342825942861477 7.321462399784488 16.298522601949614 7.321462399784488 C 17.264071803914945 7.321462399784488 18.091685405599513 7.653140015427035 18.771510864126128 8.326250470701616 C 19.45133632265274 8.989605701986711 19.796175323354642 9.809044517103594 19.796175323354642 10.76505646807329 C 19.796175323354642 11.408901251379412 19.638534637319484 11.994214690748613 19.333105808126373 12.530752010170382 C 18.387261691915434 11.594250507179659 17.234514175283355 11.125999755684298 15.865010715352934 11.125999755684298 L 15.55958188615982 11.125999755684298 C 15.273858142721096 9.965128100935381 14.712263198720851 9.009116149965685 13.884649597036283 8.267719126764696 z M 15.461056457387846 3.126716084305208 C 15.461056457387846 3.360841460052889 15.539876800405422 3.555945939842623 15.707370029317778 3.721784747663897 S 16.071914115774078 3.9656653474010644 16.298522601949614 3.9656653474010644 C 16.534983631002348 3.9656653474010644 16.732034488546294 3.887623555485171 16.88967517458145 3.721784747663897 C 17.047315860616607 3.555945939842623 17.126136203634186 3.360841460052889 17.126136203634186 3.126716084305208 L 17.126136203634186 1.1171399424709492 C 17.126136203634186 0.8830145667232685 17.047315860616607 0.6781548629440479 16.88967517458145 0.5220712791122609 C 16.732034488546294 0.35623247129098706 16.534983631002348 0.2684354553856068 16.298522601949614 0.2684354553856068 C 16.06206157289688 0.2684354553856068 15.865010715352934 0.3464772473015003 15.707370029317778 0.5123160551227742 S 15.461056457387846 0.8732593427337818 15.461056457387846 1.1073847184814625 L 15.461056457387846 3.126716084305208 z M 20.95877538286392 5.360662377897661 C 20.95877538286392 5.594787753645342 21.0375957258815 5.789892233435076 21.185383869039455 5.945975817266863 C 21.323319469320218 6.10205940109865 21.50066524110977 6.1801011930145435 21.727273727285308 6.199611640993517 C 21.953882213460844 6.21912208897249 22.160785613881988 6.13132507306711 22.347983928548732 5.945975817266863 L 23.766750102865142 4.541223562780779 C 23.944095874654693 4.385139978948992 24.02291621767227 4.190035499159258 24.02291621767227 3.9559101234115768 S 23.934243331777495 3.5266802678741627 23.766750102865142 3.3705966840423756 C 23.609109416829984 3.1950026522316155 23.412058559286038 3.1169608603157215 23.175597530233304 3.1169608603157215 C 22.948989044057768 3.1169608603157215 22.76179072939102 3.2047578762211018 22.60415004335586 3.3705966840423756 L 21.185383869039455 4.7753489385284595 C 21.0277431830043 4.92167729837076 20.95877538286392 5.116781778160494 20.95877538286392 5.360662377897661 z M 21.71742118440811 16.979134149376314 C 21.71742118440811 17.203504301134508 21.79624152742569 17.398608780924242 21.96373475633804 17.564447588745516 L 22.60415004335586 18.179026700083178 C 22.781495815145416 18.34486550790445 22.988399215566556 18.422907299820345 23.215007701742095 18.422907299820345 L 23.234712787496488 18.44241774779932 C 23.45146873079483 18.44241774779932 23.62881450258438 18.354620731893938 23.766750102865142 18.179026700083178 C 23.944095874654693 18.02294311625139 24.02291621767227 17.827838636461657 24.02291621767227 17.593713260713976 C 24.02291621767227 17.369343108955782 23.934243331777495 17.174238629166048 23.766750102865142 16.998644597355288 L 23.15589244447891 16.393820710007112 C 22.978546672689358 16.218226678196352 22.781495815145416 16.13042966229097 22.554887328969876 16.13042966229097 C 22.318426299917142 16.13042966229097 22.1213754423732 16.218226678196352 21.96373475633804 16.384065486017626 C 21.806094070302887 16.5499042938389 21.71742118440811 16.75476399761812 21.71742118440811 16.979134149376314 z M 23.165744987356106 10.76505646807329 C 23.165744987356106 10.99918184382097 23.254417873250883 11.194286323610704 23.421911102163236 11.340614683453005 C 23.57955178819839 11.516208715263765 23.77660264574234 11.594250507179659 24.013063674795074 11.594250507179659 L 26.042687507497707 11.594250507179659 C 26.279148536550444 11.594250507179659 26.47619939409439 11.516208715263765 26.643692623006743 11.350369907442492 C 26.811185851919095 11.184531099621218 26.890006194936674 10.989426619831484 26.890006194936674 10.76505646807329 S 26.811185851919095 10.335826612535875 26.643692623006743 10.179743028704088 C 26.47619939409439 10.023659444872301 26.279148536550444 9.945617652956408 26.042687507497707 9.945617652956408 L 24.013063674795074 9.945617652956408 C 23.77660264574234 9.945617652956408 23.569699245321196 10.023659444872301 23.412058559286038 10.179743028704088 C 23.244565330373685 10.335826612535875 23.165744987356106 10.53093109232561 23.165744987356106 10.76505646807329 z" width="0" height="0"/>
 </g>
</svg>