<svg width="24" height="22" xmlns="http://www.w3.org/2000/svg">

 <g width="0" height="0">
  <title width="0" height="0">Layer 1</title>
  <path fill="#dfefdf" id="imagebot_2" d="M 8.583068833445395e-8 12.229999952316284 C 8.583068833445395e-8 12.499999952316283 0.09000008583068864 12.719999952316284 0.2800000858306886 12.899999952316284 S 0.7100000858306883 13.159999952316284 1.0000000858306883 13.159999952316284 L 2.6900000858306887 13.159999952316284 C 2.9600000858306883 13.159999952316284 3.1900000858306887 13.069999952316284 3.3800000858306882 12.889999952316284 S 3.6700000858306883 12.489999952316284 3.6700000858306883 12.229999952316284 C 3.6700000858306883 11.939999952316285 3.5800000858306884 11.699999952316285 3.390000085830689 11.519999952316285 S 2.970000085830688 11.239999952316284 2.7000000858306885 11.239999952316284 L 1.0000000858306883 11.239999952316284 C 0.7100000858306883 11.239999952316284 0.47000008583068853 11.329999952316284 0.2800000858306886 11.519999952316285 C 0.09000008583068864 11.689999952316285 8.583068833445395e-8 11.929999952316285 8.583068833445395e-8 12.229999952316284 z M 1.7700000858306888 18.409999952316284 C 1.7700000858306888 19.379999952316282 2.1200000858306884 20.219999952316286 2.8300000858306884 20.929999952316283 C 3.5400000858306884 21.639999952316284 4.370000085830688 21.989999952316285 5.340000085830688 21.989999952316285 L 12.200000085830688 21.989999952316285 C 13.17000008583069 21.989999952316285 14.000000085830688 21.639999952316284 14.69000008583069 20.939999952316285 C 15.380000085830687 20.239999952316285 15.730000085830689 19.399999952316286 15.730000085830689 18.409999952316284 C 15.730000085830689 17.929999952316283 15.660000085830688 17.519999952316283 15.520000085830688 17.179999952316283 C 16.35000008583069 16.649999952316286 17.01000008583069 15.939999952316285 17.490000085830687 15.059999952316286 C 17.970000085830687 14.179999952316285 18.220000085830687 13.229999952316284 18.220000085830687 12.219999952316284 C 18.220000085830687 11.409999952316284 18.060000085830687 10.629999952316284 17.740000085830687 9.889999952316284 C 17.42000008583069 9.149999952316284 16.990000085830687 8.509999952316285 16.46000008583069 7.979999952316284 C 15.930000085830688 7.4499999523162845 15.290000085830687 7.019999952316285 14.550000085830689 6.6999999523162845 C 13.810000085830687 6.379999952316284 13.040000085830687 6.219999952316284 12.230000085830689 6.219999952316284 C 11.140000085830689 6.219999952316284 10.13000008583069 6.489999952316284 9.21000008583069 7.029999952316285 S 7.560000085830689 8.299999952316284 7.030000085830688 9.209999952316284 C 6.500000085830688 10.129999952316284 6.2400000858306885 11.129999952316284 6.2400000858306885 12.219999952316284 L 6.2400000858306885 12.559999952316284 C 5.2400000858306885 13.129999952316284 4.580000085830688 13.959999952316284 4.260000085830688 15.049999952316284 C 3.5000000858306883 15.289999952316283 2.9000000858306887 15.709999952316284 2.4500000858306885 16.319999952316284 C 2.0000000858306883 16.929999952316283 1.7700000858306888 17.629999952316282 1.7700000858306888 18.409999952316284 z M 3.3300000858306884 4.249999952316284 C 3.3300000858306884 4.529999952316285 3.4200000858306883 4.759999952316284 3.590000085830688 4.919999952316284 L 5.200000085830688 6.609999952316285 C 5.670000085830688 6.969999952316284 6.140000085830689 6.969999952316284 6.610000085830688 6.609999952316285 C 6.800000085830689 6.419999952316284 6.890000085830689 6.189999952316284 6.890000085830689 5.9099999523162845 C 6.890000085830689 5.639999952316284 6.800000085830689 5.4099999523162845 6.610000085830688 5.209999952316284 L 4.960000085830689 3.559999952316284 C 4.750000085830688 3.3699999523162845 4.510000085830688 3.269999952316284 4.260000085830688 3.269999952316284 C 3.9800000858306888 3.269999952316284 3.7500000858306883 3.3599999523162847 3.5800000858306884 3.549999952316284 C 3.4100000858306885 3.7399999523162846 3.3300000858306884 3.969999952316284 3.3300000858306884 4.249999952316284 z M 3.7500000858306883 18.409999952316284 C 3.7500000858306883 17.989999952316285 3.8800000858306882 17.629999952316282 4.150000085830689 17.329999952316285 C 4.420000085830688 17.029999952316285 4.760000085830688 16.859999952316283 5.170000085830688 16.819999952316284 L 5.790000085830689 16.739999952316285 C 5.920000085830688 16.739999952316285 5.9900000858306885 16.659999952316284 5.9900000858306885 16.509999952316285 L 6.080000085830688 15.949999952316283 C 6.150000085830689 15.369999952316284 6.390000085830689 14.889999952316284 6.810000085830689 14.509999952316285 C 7.230000085830689 14.119999952316284 7.720000085830689 13.929999952316285 8.29000008583069 13.929999952316285 C 8.87000008583069 13.929999952316285 9.38000008583069 14.119999952316284 9.800000085830689 14.509999952316285 C 10.230000085830689 14.899999952316286 10.480000085830689 15.379999952316282 10.550000085830689 15.949999952316283 L 10.63000008583069 16.599999952316285 C 10.690000085830688 16.749999952316283 10.770000085830688 16.829999952316285 10.87000008583069 16.829999952316285 L 12.190000085830688 16.829999952316285 C 12.62000008583069 16.829999952316285 12.990000085830687 16.989999952316285 13.310000085830687 17.299999952316284 C 13.630000085830687 17.609999952316283 13.78000008583069 17.979999952316284 13.78000008583069 18.419999952316285 C 13.78000008583069 18.869999952316284 13.62000008583069 19.249999952316283 13.310000085830687 19.569999952316284 S 12.62000008583069 20.049999952316284 12.190000085830688 20.049999952316284 L 5.340000085830688 20.049999952316284 C 4.890000085830689 20.049999952316284 4.510000085830688 19.889999952316284 4.210000085830688 19.569999952316284 C 3.9000000858306887 19.249999952316283 3.7500000858306883 18.859999952316283 3.7500000858306883 18.409999952316284 z M 8.170000085830688 12.019999952316285 C 8.240000085830689 10.929999952316285 8.660000085830688 10.009999952316285 9.440000085830688 9.259999952316285 C 10.21000008583069 8.519999952316285 11.150000085830689 8.139999952316284 12.230000085830689 8.139999952316284 C 13.340000085830688 8.139999952316284 14.290000085830687 8.539999952316284 15.070000085830689 9.329999952316284 C 15.85000008583069 10.119999952316284 16.240000085830687 11.089999952316283 16.240000085830687 12.219999952316284 C 16.240000085830687 12.919999952316283 16.07000008583069 13.569999952316284 15.730000085830689 14.169999952316283 C 15.390000085830689 14.769999952316285 14.930000085830688 15.249999952316283 14.35000008583069 15.619999952316284 C 13.76000008583069 15.129999952316282 13.08000008583069 14.889999952316284 12.320000085830689 14.889999952316284 C 12.030000085830688 14.009999952316285 11.510000085830688 13.319999952316284 10.78000008583069 12.799999952316284 C 10.050000085830689 12.279999952316285 9.220000085830689 12.019999952316285 8.300000085830689 12.019999952316285 L 8.170000085830688 12.019999952316285 z M 11.260000085830688 3.269999952316284 C 11.260000085830688 3.5399999523162844 11.360000085830688 3.7799999523162846 11.550000085830689 3.969999952316284 C 11.740000085830689 4.1599999523162845 11.970000085830689 4.259999952316284 12.240000085830689 4.259999952316284 C 12.520000085830688 4.259999952316284 12.750000085830688 4.1599999523162845 12.94000008583069 3.969999952316284 C 13.130000085830687 3.7799999523162846 13.230000085830689 3.549999952316284 13.230000085830689 3.269999952316284 L 13.230000085830689 0.9299999523162841 C 13.230000085830689 0.6699999523162843 13.130000085830687 0.4499999523162841 12.94000008583069 0.26999995231628415 C 12.750000085830688 0.08999995231628422 12.520000085830688 -4.768371586472142e-8 12.240000085830689 -4.768371586472142e-8 C 11.970000085830689 -4.768371586472142e-8 11.740000085830689 0.08999995231628422 11.550000085830689 0.26999995231628415 C 11.360000085830688 0.4499999523162841 11.260000085830688 0.6699999523162843 11.260000085830688 0.9299999523162841 L 11.260000085830688 3.269999952316284 z M 17.58000008583069 18.499999952316283 C 17.58000008583069 18.769999952316283 17.67000008583069 18.999999952316283 17.85000008583069 19.199999952316283 L 19.490000085830687 20.819999952316284 C 19.91000008583069 21.239999952316285 20.380000085830687 21.239999952316285 20.900000085830687 20.819999952316284 C 21.08000008583069 20.649999952316286 21.16000008583069 20.429999952316283 21.16000008583069 20.139999952316284 C 21.16000008583069 19.869999952316284 21.07000008583069 19.649999952316286 20.900000085830687 19.469999952316286 L 19.21000008583069 17.799999952316284 C 19.03000008583069 17.629999952316282 18.80000008583069 17.549999952316284 18.53000008583069 17.549999952316284 C 18.25000008583069 17.549999952316284 18.03000008583069 17.639999952316284 17.85000008583069 17.819999952316284 C 17.67000008583069 17.999999952316283 17.58000008583069 18.229999952316284 17.58000008583069 18.499999952316283 z M 17.58000008583069 5.889999952316284 C 17.58000008583069 6.169999952316284 17.67000008583069 6.4099999523162845 17.85000008583069 6.609999952316285 C 18.03000008583069 6.789999952316284 18.26000008583069 6.879999952316284 18.53000008583069 6.879999952316284 C 18.80000008583069 6.879999952316284 19.03000008583069 6.789999952316284 19.21000008583069 6.609999952316285 L 20.900000085830687 4.919999952316284 C 21.08000008583069 4.749999952316284 21.16000008583069 4.529999952316285 21.16000008583069 4.249999952316284 C 21.16000008583069 3.969999952316284 21.060000085830687 3.7399999523162846 20.87000008583069 3.559999952316284 S 20.450000085830688 3.2799999523162846 20.17000008583069 3.2799999523162846 C 19.91000008583069 3.2799999523162846 19.680000085830688 3.3799999523162843 19.490000085830687 3.5699999523162838 L 17.85000008583069 5.1999999523162845 C 17.67000008583069 5.379999952316284 17.58000008583069 5.609999952316285 17.58000008583069 5.889999952316284 z M 20.16000008583069 12.229999952316284 C 20.16000008583069 12.499999952316283 20.25000008583069 12.719999952316284 20.44000008583069 12.899999952316284 S 20.87000008583069 13.159999952316284 21.16000008583069 13.159999952316284 L 22.85000008583069 13.159999952316284 C 23.12000008583069 13.159999952316284 23.35000008583069 13.069999952316284 23.540000085830687 12.889999952316284 S 23.83000008583069 12.489999952316284 23.83000008583069 12.229999952316284 C 23.83000008583069 11.939999952316285 23.740000085830687 11.699999952316285 23.55000008583069 11.519999952316285 S 23.130000085830687 11.239999952316284 22.860000085830688 11.239999952316284 L 21.17000008583069 11.239999952316284 C 20.880000085830687 11.239999952316284 20.64000008583069 11.329999952316284 20.450000085830688 11.519999952316285 C 20.26000008583069 11.689999952316285 20.16000008583069 11.929999952316285 20.16000008583069 12.229999952316284 z" width="0" height="0"/>
 </g>
</svg>