<svg width="22" height="19" xmlns="http://www.w3.org/2000/svg">

 <g width="0" height="0">
  <title width="0" height="0">Layer 1</title>
  <path transform="null" fill="#dfefdf" id="imagebot_2" d="M 0.06871988577329739 7.596896390612553 C 0.06871988577329739 6.6900603653056585 0.3542440421512586 5.890484515035066 0.925292354907181 5.178666989794171 S 2.2150738888903843 4.008555989398179 3.0814920185890253 3.8135374893321807 C 3.3374791932727144 2.7409357389691893 3.8888361848991226 1.8633524886721957 4.755254314597764 1.171036813437901 S 6.606238500772132 0.1374387630881092 7.718798144589705 0.1374387630881092 C 8.801820806713007 0.1374387630881092 9.766695542059221 0.4787211382036063 10.623268011193103 1.1515349634313017 S 12.031197471953396 2.682430188949389 12.277338986072328 3.7355300893057812 L 12.533326160756015 3.7355300893057812 C 13.616348822879317 3.7355300893057812 14.5418409159665 4.115816164434479 15.309802440017569 4.866637389688573 C 16.07776396406864 5.617458614942667 16.461744726094174 6.534045565252861 16.461744726094174 7.606647315615852 C 16.461744726094174 7.616398240619152 16.461744726094174 7.626149165622452 16.461744726094174 7.645651015629052 C 16.461744726094174 7.665152865635651 16.461744726094174 7.684654715642252 16.461744726094174 7.7041565656488515 C 17.20016926845097 8.484230565912847 17.564458709346987 9.410568441226339 17.564458709346987 10.483170191589332 C 17.564458709346987 11.224240491840126 17.3773911586166 11.906805242071119 17.00325605715582 12.530864442282315 C 16.629120955695047 13.164674567496812 16.126992266892426 13.661971742665107 15.49686999074796 14.022755967787205 C 14.866747714603493 14.393291117912602 14.177551475070484 14.568807767972 13.439126932713688 14.568807767972 C 12.493943518496987 14.568807767972 11.64721670992786 14.276280017873 10.918637828135823 13.700975442678306 S 9.69777591810592 12.384600567232818 9.461480064551743 11.497266391932524 L 3.8494535426400938 11.497266391932524 C 2.795967862211064 11.448511766916024 1.9000127508181521 11.048723841780728 1.1714338690261128 10.297902616526633 S 0.06871988577329739 8.640245365965644 0.06871988577329739 7.596896390612553 z M 1.4077297225802872 7.596896390612553 C 1.4077297225802872 8.279461140843548 1.644025576134462 8.874267566044843 2.1264629438075695 9.37156474121314 S 3.179948624236599 10.141887816473833 3.8494535426400938 10.171140591483733 L 12.700702390356891 10.171140591483733 C 13.370207308760385 10.141887816473833 13.951101282081066 9.878612841384736 14.423692989189416 9.37156474121314 C 14.90613035686252 8.864516641041543 15.142426210416698 8.279461140843548 15.142426210416698 7.596896390612553 C 15.142426210416698 6.904580715378257 14.886439035733007 6.3097742901769625 14.36461902580087 5.812477115008666 C 13.842799015868737 5.305429014837069 13.242213721418539 5.0616558897545705 12.533326160756015 5.0616558897545705 L 11.263235947902327 5.0616558897545705 C 11.174625002819512 5.0616558897545705 11.125396699995724 5.012901264738072 11.125396699995724 4.925142939708373 L 11.056477076042423 4.466849464553276 C 10.967866130959607 3.618518989266183 10.603576690063589 2.906701464025288 9.953763092789607 2.3313968888305925 S 8.555679292594075 1.4635645635368986 7.708952484024948 1.4635645635368986 C 6.83268869376155 1.4635645635368986 6.0745728302752395 1.7463413886325965 5.434604893566016 2.321645963827292 S 4.450038837090288 3.608768064262883 4.361427892007472 4.457098539549976 L 4.302353928618928 4.915392014705073 C 4.302353928618928 5.0031503397347725 4.253125625795141 5.051904964751271 4.144823359582811 5.051904964751271 L 3.7509969369925202 5.051904964751271 C 3.0913376791537823 5.12991236477767 2.530135026962618 5.40293826487007 2.08708030154854 5.890484515035066 C 1.634179915569705 6.36827984019676 1.4077297225802872 6.943584415391458 1.4077297225802872 7.596896390612553 z M 7.512039272729801 16.382479818585786 C 7.265897758610869 16.060699293476887 7.265897758610869 15.74866969337129 7.512039272729801 15.426889168262392 L 8.624598916547376 14.305532792882902 C 8.762438164453977 14.188521692843302 8.92981439405485 14.130016142823504 9.136573265914755 14.130016142823504 C 9.323640816645142 14.130016142823504 9.471325725116502 14.188521692843302 9.58947365189359 14.305532792882902 C 9.707621578670675 14.422543892922501 9.766695542059221 14.578558692975301 9.766695542059221 14.763826268037997 C 9.766695542059221 14.958844768103999 9.707621578670675 15.114859568156797 9.58947365189359 15.231870668196395 L 8.46706834751126 16.382479818585786 C 8.34892042073417 16.499490918625387 8.181544191133298 16.567747393648485 7.984630979838152 16.567747393648485 C 7.787717768543005 16.567747393648485 7.63018719950689 16.499490918625387 7.512039272729801 16.382479818585786 z M 10.84971820418252 11.487515466929223 C 11.056477076042423 12.014065417107417 11.401075195808929 12.433355192249318 11.873666902917279 12.755135717358215 C 12.346258610025629 13.076916242467114 12.868078619957762 13.242681967523211 13.448972593278443 13.242681967523211 C 14.207088456764753 13.242681967523211 14.856902054038734 12.969656067430812 15.38856772453563 12.433355192249318 C 15.920233395032522 11.88730339206452 16.186066230280968 11.233991416843427 16.186066230280968 10.463668341582732 C 16.186066230280968 10.083382266454034 16.126992266892426 9.742099891338537 15.998998679550578 9.439821216236238 C 15.67409188091359 10.034627641437535 15.211345834369995 10.522173891602531 14.630451861049314 10.892709041727928 C 14.03971222716388 11.263244191853325 13.399744290454654 11.458262691919325 12.700702390356891 11.487515466929223 L 10.84971820418252 11.487515466929223 z M 12.769622014310192 16.548245543641887 C 12.769622014310192 16.362977968579187 12.838541638263493 16.21671409352969 12.966535225605337 16.089952068486788 C 13.09452881294718 15.97294096844719 13.261905042548056 15.90468449342409 13.439126932713688 15.90468449342409 C 13.616348822879317 15.90468449342409 13.78372505248019 15.97294096844719 13.931409960951552 16.109453918493386 C 14.049557887728636 16.226465018532988 14.118477511681938 16.372728893582487 14.118477511681938 16.548245543641887 L 14.118477511681938 18.147397244183075 C 14.118477511681938 18.33266481924577 14.049557887728636 18.48867961929857 13.921564300386791 18.62519256934477 C 13.793570713044948 18.76170551939097 13.626194483444074 18.829961994414067 13.448972593278443 18.829961994414067 S 13.10437447351194 18.76170551939097 12.976380886170093 18.62519256934477 C 12.848387298828248 18.48867961929857 12.779467674874947 18.33266481924577 12.779467674874947 18.147397244183075 L 12.779467674874947 16.548245543641887 L 12.769622014310192 16.548245543641887 z M 17.111558323368154 14.763826268037997 C 17.111558323368154 14.588309617978599 17.170632286756696 14.442045742929102 17.29862587409854 14.315283717886203 C 17.426619461440385 14.198272617846603 17.5841500304765 14.130016142823504 17.761371920642134 14.130016142823504 C 17.94843947137252 14.130016142823504 18.10597004040864 14.188521692843302 18.224117967185727 14.305532792882902 L 19.385905913827084 15.426889168262392 C 19.51389950116893 15.563402118308591 19.58281912512223 15.719416918361391 19.58281912512223 15.89493356842079 C 19.58281912512223 16.080201143483485 19.51389950116893 16.236215943536287 19.385905913827084 16.362977968579187 C 19.25791232648524 16.489739993622088 19.090536096884367 16.557996468645182 18.903468546153977 16.557996468645182 C 18.696709674294073 16.557996468645182 18.53917910525796 16.499490918625387 18.411185517916113 16.372728893582487 L 17.29862587409854 15.222119743193096 C 17.170632286756696 15.085606793146896 17.111558323368154 14.929591993094098 17.111558323368154 14.763826268037997 z M 17.111558323368154 6.173261340130763 C 17.111558323368154 5.987993765068064 17.170632286756696 5.831978965015265 17.29862587409854 5.714967864975666 L 18.411185517916113 4.564358714586275 C 18.549024765822715 4.447347614546676 18.70655533485883 4.3790911395235765 18.903468546153977 4.3790911395235765 C 19.090536096884367 4.3790911395235765 19.24806666592048 4.437596689543376 19.39575157439184 4.564358714586275 C 19.52374516173369 4.710622589635774 19.59266478568699 4.876388314691873 19.59266478568699 5.0616558897545705 C 19.59266478568699 5.237172539813971 19.52374516173369 5.383436414863469 19.39575157439184 5.5297002899129675 L 18.23396362775048 6.651056665292459 C 18.115815700973396 6.768067765332058 17.958285131937277 6.836324240355157 17.771217581206887 6.836324240355157 S 17.426619461440385 6.777818690335359 17.3084715346633 6.651056665292459 C 17.170632286756696 6.51454371524626 17.111558323368154 6.358528915193461 17.111558323368154 6.173261340130763 z M 18.903468546153977 10.463668341582732 C 18.903468546153977 10.278400766520033 18.962542509542523 10.122385966467235 19.090536096884367 9.995623941424334 C 19.208684023661455 9.868861916381437 19.36621459269757 9.800605441358337 19.553282143427957 9.800605441358337 L 21.148279154918637 9.800605441358337 C 21.335346705649027 9.800605441358337 21.5027229352499 9.868861916381437 21.6405621831565 9.995623941424334 S 21.847321055016405 10.278400766520033 21.847321055016405 10.463668341582732 C 21.847321055016405 10.64893591664543 21.778401431063102 10.81470164170153 21.6405621831565 10.941463666744427 C 21.5027229352499 11.068225691787326 21.34519236621378 11.136482166810426 21.148279154918637 11.136482166810426 L 19.553282143427957 11.136482166810426 C 19.36621459269757 11.136482166810426 19.21852968422621 11.068225691787326 19.090536096884367 10.941463666744427 C 18.962542509542523 10.81470164170153 18.903468546153977 10.65868684164873 18.903468546153977 10.463668341582732 z" width="0" height="0"/>
 </g>
</svg>