<svg width="27" height="21" xmlns="http://www.w3.org/2000/svg">

 <g width="0" height="0">
  <title width="0" height="0">Layer 1</title>
  <path fill="#dfefdf" id="imagebot_2" d="M 5.7220459037665705e-8 15.989999973773955 C 5.7220459037665705e-8 16.889999973773957 0.2200000572204588 17.719999973773955 0.6600000572204592 18.479999973773957 S 1.7000000572204588 19.839999973773956 2.4600000572204586 20.279999973773958 C 3.2200000572204592 20.719999973773955 4.040000057220459 20.939999973773958 4.930000057220459 20.939999973773958 L 15.76000005722046 20.939999973773958 C 16.65000005722046 20.939999973773958 17.480000057220458 20.719999973773955 18.24000005722046 20.279999973773958 C 19.000000057220458 19.839999973773956 19.61000005722046 19.239999973773955 20.05000005722046 18.479999973773957 C 20.49000005722046 17.719999973773955 20.72000005722046 16.889999973773957 20.72000005722046 15.989999973773955 C 20.72000005722046 15.329999973773955 20.58000005722046 14.659999973773957 20.30000005722046 13.989999973773957 C 21.06000005722046 13.069999973773957 21.44000005722046 11.959999973773957 21.44000005722046 10.689999973773956 C 21.44000005722046 9.979999973773957 21.30000005722046 9.299999973773957 21.03000005722046 8.649999973773957 C 20.76000005722046 7.999999973773956 20.38000005722046 7.449999973773956 19.910000057220458 6.979999973773956 C 19.44000005722046 6.509999973773956 18.89000005722046 6.129999973773956 18.24000005722046 5.859999973773956 C 17.590000057220458 5.5799999737739565 16.910000057220458 5.449999973773957 16.20000005722046 5.449999973773957 C 14.72000005722046 5.449999973773957 13.43000005722046 6.029999973773957 12.32000005722046 7.189999973773956 C 11.550000057220458 6.749999973773956 10.65000005722046 6.529999973773957 9.620000057220459 6.529999973773957 C 8.210000057220459 6.529999973773957 6.970000057220458 6.969999973773956 5.890000057220459 7.839999973773956 C 4.810000057220459 8.709999973773956 4.110000057220459 9.829999973773957 3.810000057220459 11.189999973773956 C 2.690000057220459 11.449999973773956 1.7800000572204588 12.019999973773956 1.0700000572204589 12.919999973773956 S 5.7220459037665705e-8 14.839999973773956 5.7220459037665705e-8 15.989999973773955 z M 1.710000057220459 15.989999973773955 C 1.710000057220459 15.149999973773955 1.9900000572204588 14.429999973773956 2.5500000572204593 13.819999973773957 C 3.110000057220459 13.209999973773956 3.810000057220459 12.859999973773956 4.650000057220459 12.759999973773956 L 5.150000057220459 12.729999973773957 C 5.270000057220459 12.729999973773957 5.340000057220459 12.669999973773956 5.340000057220459 12.549999973773957 L 5.410000057220459 12.009999973773956 C 5.550000057220459 10.929999973773956 6.020000057220459 10.019999973773956 6.82000005722046 9.299999973773957 C 7.620000057220459 8.569999973773957 8.560000057220458 8.209999973773956 9.630000057220458 8.209999973773956 C 10.730000057220458 8.209999973773956 11.690000057220459 8.579999973773957 12.50000005722046 9.309999973773957 C 13.32000005722046 10.039999973773956 13.770000057220459 10.939999973773956 13.870000057220459 12.019999973773956 L 13.940000057220459 12.599999973773956 C 13.960000057220459 12.709999973773956 14.030000057220459 12.769999973773956 14.15000005722046 12.769999973773956 L 15.76000005722046 12.769999973773956 C 16.64000005722046 12.769999973773956 17.40000005722046 13.089999973773956 18.04000005722046 13.729999973773957 C 18.680000057220457 14.369999973773956 19.000000057220458 15.119999973773957 19.000000057220458 15.999999973773956 C 19.000000057220458 16.909999973773957 18.680000057220457 17.679999973773956 18.05000005722046 18.319999973773957 C 17.42000005722046 18.959999973773957 16.65000005722046 19.279999973773958 15.770000057220457 19.279999973773958 L 4.930000057220459 19.279999973773958 C 4.050000057220459 19.279999973773958 3.3000000572204593 18.959999973773957 2.6600000572204587 18.309999973773955 C 2.030000057220459 17.659999973773957 1.710000057220459 16.889999973773957 1.710000057220459 15.989999973773955 z M 8.41000005722046 3.719999973773956 C 8.41000005722046 3.9599999737739564 8.49000005722046 4.169999973773956 8.65000005722046 4.349999973773956 L 9.31000005722046 4.989999973773957 C 9.560000057220458 5.179999973773956 9.770000057220459 5.259999973773956 9.950000057220459 5.239999973773957 C 10.16000005722046 5.239999973773957 10.34000005722046 5.149999973773956 10.50000005722046 4.979999973773956 S 10.74000005722046 4.599999973773956 10.74000005722046 4.359999973773956 C 10.74000005722046 4.1199999737739565 10.65000005722046 3.9199999737739564 10.480000057220458 3.769999973773956 L 9.890000057220458 3.109999973773956 C 9.710000057220459 2.9499999737739566 9.51000005722046 2.869999973773956 9.280000057220459 2.869999973773956 C 9.040000057220459 2.869999973773956 8.83000005722046 2.9499999737739566 8.66000005722046 3.1199999737739565 C 8.49000005722046 3.2799999737739567 8.41000005722046 3.479999973773956 8.41000005722046 3.719999973773956 z M 13.75000005722046 8.149999973773957 C 14.440000057220459 7.479999973773957 15.26000005722046 7.149999973773957 16.20000005722046 7.149999973773957 C 17.19000005722046 7.149999973773957 18.03000005722046 7.489999973773957 18.72000005722046 8.179999973773956 C 19.410000057220458 8.869999973773956 19.76000005722046 9.699999973773956 19.76000005722046 10.689999973773956 C 19.76000005722046 11.309999973773957 19.590000057220458 11.929999973773956 19.250000057220458 12.529999973773956 C 18.28000005722046 11.569999973773957 17.12000005722046 11.089999973773956 15.76000005722046 11.089999973773956 L 15.440000057220459 11.089999973773956 C 15.190000057220459 9.999999973773956 14.63000005722046 9.019999973773956 13.75000005722046 8.149999973773957 z M 15.38000005722046 2.869999973773956 C 15.38000005722046 3.1299999737739563 15.460000057220459 3.3299999737739565 15.61000005722046 3.4899999737739567 S 15.960000057220459 3.719999973773956 16.20000005722046 3.719999973773956 C 16.46000005722046 3.719999973773956 16.660000057220458 3.639999973773956 16.820000057220458 3.4899999737739567 C 16.980000057220458 3.3299999737739565 17.05000005722046 3.1299999737739563 17.05000005722046 2.869999973773956 L 17.05000005722046 0.8199999737739563 C 17.05000005722046 0.5799999737739563 16.97000005722046 0.38999997377395634 16.81000005722046 0.22999997377395642 S 16.45000005722046 -2.622604367008563e-8 16.20000005722046 -2.622604367008563e-8 C 15.960000057220459 -2.622604367008563e-8 15.770000057220457 0.07999997377395629 15.61000005722046 0.22999997377395642 S 15.38000005722046 0.5799999737739563 15.38000005722046 0.8199999737739563 L 15.38000005722046 2.869999973773956 z M 20.90000005722046 5.159999973773957 C 20.90000005722046 5.419999973773956 20.97000005722046 5.6199999737739565 21.12000005722046 5.779999973773956 C 21.33000005722046 5.939999973773956 21.54000005722046 6.019999973773956 21.74000005722046 6.019999973773956 C 21.92000005722046 6.019999973773956 22.12000005722046 5.939999973773956 22.33000005722046 5.779999973773956 L 23.76000005722046 4.349999973773956 C 23.92000005722046 4.169999973773956 24.000000057220458 3.9599999737739564 24.000000057220458 3.7099999737739564 C 24.000000057220458 3.469999973773956 23.92000005722046 3.269999973773956 23.76000005722046 3.109999973773956 C 23.60000005722046 2.9499999737739566 23.40000005722046 2.869999973773956 23.17000005722046 2.869999973773956 C 22.930000057220457 2.869999973773956 22.74000005722046 2.9499999737739566 22.590000057220458 3.109999973773956 L 21.12000005722046 4.5399999737739565 C 20.97000005722046 4.729999973773956 20.90000005722046 4.929999973773956 20.90000005722046 5.159999973773957 z M 21.69000005722046 16.999999973773956 C 21.69000005722046 17.239999973773955 21.770000057220457 17.449999973773956 21.94000005722046 17.629999973773955 L 22.590000057220458 18.259999973773958 C 22.74000005722046 18.419999973773955 22.930000057220457 18.499999973773956 23.17000005722046 18.499999973773956 S 23.61000005722046 18.419999973773955 23.770000057220457 18.249999973773956 C 23.930000057220457 18.079999973773955 24.01000005722046 17.879999973773955 24.01000005722046 17.629999973773955 C 24.01000005722046 17.409999973773957 23.930000057220457 17.209999973773957 23.770000057220457 17.049999973773957 L 23.12000005722046 16.399999973773955 C 22.96000005722046 16.239999973773955 22.770000057220457 16.159999973773957 22.55000005722046 16.159999973773957 C 22.31000005722046 16.159999973773957 22.11000005722046 16.239999973773955 21.95000005722046 16.399999973773955 C 21.78000005722046 16.559999973773955 21.69000005722046 16.759999973773958 21.69000005722046 16.999999973773956 z M 23.160000057220458 10.689999973773956 C 23.160000057220458 10.919999973773956 23.250000057220458 11.109999973773956 23.42000005722046 11.269999973773956 C 23.58000005722046 11.429999973773956 23.79000005722046 11.509999973773956 24.03000005722046 11.509999973773956 L 26.070000057220458 11.509999973773956 C 26.30000005722046 11.509999973773956 26.49000005722046 11.429999973773956 26.65000005722046 11.279999973773956 S 26.88000005722046 10.929999973773956 26.88000005722046 10.689999973773956 C 26.88000005722046 10.449999973773956 26.80000005722046 10.249999973773956 26.65000005722046 10.089999973773956 S 26.30000005722046 9.839999973773956 26.070000057220458 9.839999973773956 L 24.03000005722046 9.839999973773956 C 23.79000005722046 9.839999973773956 23.590000057220458 9.919999973773956 23.42000005722046 10.089999973773956 C 23.24000005722046 10.259999973773956 23.160000057220458 10.459999973773956 23.160000057220458 10.689999973773956 z" width="0" height="0"/>
 </g>
</svg>