<svg width="21" height="21" xmlns="http://www.w3.org/2000/svg">

 <g width="0" height="0">
  <title width="0" height="0">Layer 1</title>
  <path fill="#dfefdf" id="imagebot_2" d="M 1.1444091807533141e-7 10.62 C 1.1444091807533141e-7 10.38 0.08000011444091815 10.17 0.2500001144409181 10 C 0.420000114440918 9.84 0.630000114440918 9.76 0.8500001144409177 9.76 L 2.8900001144409178 9.76 C 3.120000114440918 9.76 3.3100001144409177 9.84 3.470000114440918 10.01 C 3.620000114440918 10.18 3.7000001144409183 10.38 3.7000001144409183 10.62 S 3.630000114440918 11.06 3.4800001144409176 11.23 C 3.330000114440918 11.4 3.130000114440918 11.48 2.9000001144409175 11.48 L 0.8600001144409184 11.48 C 0.630000114440918 11.48 0.4300001144409178 11.4 0.26000011444091786 11.23 C 0.09000011444091793 11.06 1.1444091807533141e-7 10.86 1.1444091807533141e-7 10.62 z M 2.8600001144409184 17.55 C 2.8600001144409184 17.32 2.9400001144409176 17.12 3.090000114440918 16.94 L 4.560000114440918 15.510000000000002 C 4.710000114440918 15.350000000000001 4.910000114440917 15.280000000000001 5.1500001144409175 15.280000000000001 C 5.390000114440918 15.280000000000001 5.590000114440919 15.36 5.750000114440917 15.510000000000002 S 5.990000114440917 15.850000000000001 5.990000114440917 16.08 C 5.990000114440917 16.32 5.910000114440917 16.54 5.750000114440917 16.72 L 4.330000114440917 18.14 C 3.920000114440917 18.46 3.510000114440918 18.46 3.1000001144409177 18.14 C 2.9400001144409176 17.98 2.8600001144409184 17.78 2.8600001144409184 17.55 z M 2.8600001144409184 3.71 C 2.8600001144409184 3.4800000000000004 2.9400001144409176 3.2800000000000002 3.090000114440918 3.0999999999999996 C 3.290000114440918 2.9299999999999997 3.500000114440918 2.8499999999999996 3.7300001144409176 2.8499999999999996 C 3.9500001144409183 2.8499999999999996 4.1500001144409175 2.9299999999999997 4.3200001144409175 3.09 L 5.750000114440917 4.5600000000000005 C 5.910000114440917 4.710000000000001 5.990000114440917 4.91 5.990000114440917 5.15 C 5.990000114440917 5.390000000000001 5.910000114440917 5.59 5.750000114440917 5.75 S 5.390000114440918 5.99 5.1500001144409175 5.99 C 4.910000114440917 5.99 4.710000114440918 5.91 4.560000114440918 5.75 L 3.1000001144409177 4.32 C 2.9400001144409176 4.16 2.8600001144409184 3.95 2.8600001144409184 3.71 z M 5.410000114440917 10.62 C 5.410000114440917 9.69 5.640000114440918 8.82 6.110000114440918 8.02 S 7.210000114440918 6.58 8.020000114440919 6.109999999999999 S 9.690000114440918 5.41 10.620000114440918 5.41 C 11.320000114440917 5.41 11.990000114440917 5.550000000000001 12.64000011444092 5.83 C 13.280000114440917 6.109999999999999 13.840000114440919 6.48 14.30000011444092 6.949999999999999 C 14.770000114440919 7.42 15.14000011444092 7.970000000000001 15.410000114440919 8.61 C 15.680000114440919 9.25 15.82000011444092 9.93 15.82000011444092 10.63 C 15.82000011444092 11.57 15.590000114440919 12.440000000000001 15.120000114440916 13.239999999999998 C 14.650000114440918 14.04 14.020000114440919 14.670000000000002 13.220000114440918 15.14 C 12.420000114440917 15.61 11.550000114440918 15.84 10.610000114440918 15.84 S 8.800000114440918 15.61 8.000000114440917 15.14 C 7.200000114440918 14.670000000000002 6.5700001144409175 14.04 6.100000114440919 13.239999999999998 C 5.6500001144409175 12.43 5.410000114440917 11.56 5.410000114440917 10.62 z M 7.110000114440918 10.62 C 7.110000114440918 11.6 7.450000114440918 12.43 8.140000114440918 13.120000000000001 C 8.820000114440917 13.809999999999999 9.650000114440918 14.16 10.630000114440918 14.16 S 12.440000114440917 13.809999999999999 13.130000114440918 13.120000000000001 S 14.170000114440917 11.6 14.170000114440917 10.62 C 14.170000114440917 9.66 13.82000011444092 8.84 13.130000114440918 8.15 C 12.440000114440917 7.470000000000001 11.610000114440918 7.130000000000001 10.630000114440918 7.130000000000001 C 9.660000114440917 7.130000000000001 8.830000114440917 7.470000000000001 8.150000114440918 8.15 C 7.450000114440918 8.84 7.110000114440918 9.66 7.110000114440918 10.62 z M 9.770000114440919 18.4 C 9.770000114440919 18.16 9.850000114440919 17.96 10.020000114440919 17.8 S 10.390000114440918 17.56 10.620000114440918 17.56 C 10.860000114440918 17.56 11.070000114440917 17.64 11.230000114440918 17.8 S 11.470000114440918 18.16 11.470000114440918 18.4 L 11.470000114440918 20.39 C 11.470000114440918 20.63 11.390000114440918 20.84 11.220000114440918 21.01 C 11.050000114440918 21.18 10.850000114440919 21.26 10.620000114440918 21.26 S 10.180000114440919 21.18 10.020000114440919 21.01 C 9.850000114440919 20.84 9.770000114440919 20.63 9.770000114440919 20.39 L 9.770000114440919 18.4 z M 9.770000114440919 2.9000000000000004 L 9.770000114440919 0.8600000000000003 C 9.770000114440919 0.6299999999999999 9.850000114440919 0.4299999999999997 10.020000114440919 0.2599999999999998 C 10.190000114440918 0.08999999999999986 10.390000114440918 0 10.630000114440918 0 S 11.060000114440918 0.08000000000000007 11.230000114440918 0.25 C 11.400000114440918 0.41999999999999993 11.480000114440918 0.6200000000000001 11.480000114440918 0.8499999999999996 L 11.480000114440918 2.9000000000000004 C 11.480000114440918 3.13 11.400000114440918 3.3200000000000003 11.230000114440918 3.4800000000000004 S 10.860000114440918 3.71 10.630000114440918 3.71 S 10.190000114440918 3.63 10.030000114440918 3.4800000000000004 S 9.770000114440919 3.13 9.770000114440919 2.9000000000000004 z M 15.290000114440918 16.08 C 15.290000114440918 15.850000000000001 15.370000114440916 15.66 15.520000114440919 15.52 C 15.670000114440917 15.36 15.860000114440918 15.29 16.080000114440917 15.29 C 16.32000011444092 15.29 16.52000011444092 15.370000000000001 16.68000011444092 15.52 L 18.14000011444092 16.95 C 18.30000011444092 17.12 18.380000114440918 17.33 18.380000114440918 17.56 C 18.380000114440918 17.79 18.30000011444092 17.99 18.14000011444092 18.15 C 17.740000114440917 18.46 17.34000011444092 18.46 16.940000114440917 18.15 L 15.520000114440919 16.73 C 15.370000114440916 16.55 15.290000114440918 16.34 15.290000114440918 16.08 z M 15.290000114440918 5.16 C 15.290000114440918 4.91 15.370000114440916 4.710000000000001 15.520000114440919 4.57 L 16.940000114440917 3.0999999999999996 C 17.11000011444092 2.9400000000000004 17.310000114440918 2.8600000000000003 17.530000114440917 2.8600000000000003 C 17.77000011444092 2.8600000000000003 17.970000114440918 2.9400000000000004 18.130000114440918 3.1100000000000003 C 18.30000011444092 3.2800000000000002 18.380000114440918 3.4800000000000004 18.380000114440918 3.71 C 18.380000114440918 3.96 18.30000011444092 4.17 18.14000011444092 4.33 L 16.68000011444092 5.76 C 16.50000011444092 5.92 16.30000011444092 6 16.080000114440917 6 C 15.850000114440917 6 15.670000114440917 5.92 15.520000114440919 5.76 S 15.290000114440918 5.4 15.290000114440918 5.16 z M 17.55000011444092 10.62 C 17.55000011444092 10.38 17.630000114440918 10.18 17.790000114440918 10 C 17.95000011444092 9.84 18.14000011444092 9.76 18.36000011444092 9.76 L 20.380000114440918 9.76 C 20.61000011444092 9.76 20.810000114440918 9.85 20.98000011444092 10.02 C 21.150000114440918 10.19 21.240000114440917 10.39 21.240000114440917 10.62 S 21.150000114440918 11.05 20.98000011444092 11.22 C 20.810000114440918 11.39 20.61000011444092 11.47 20.380000114440918 11.47 L 18.36000011444092 11.47 C 18.130000114440918 11.47 17.93000011444092 11.39 17.780000114440917 11.22 S 17.55000011444092 10.86 17.55000011444092 10.62 z" width="0" height="0"/>
 </g>
</svg>