<svg width="22" height="20" xmlns="http://www.w3.org/2000/svg">

 <g width="0" height="0">
  <title width="0" height="0">Layer 1</title>
  <path transform="null" fill="#dfefdf" id="imagebot_2" d="M 0.515395993996575 10.757832151367804 C 0.515395993996575 10.527245888423902 0.6029245576114687 10.335090669303986 0.7779816848412551 10.171758733052057 C 0.9433134161138306 10.008426796800132 1.147546731215248 9.931564709152163 1.380956234188297 9.931564709152163 L 3.384387801373629 9.931564709152163 C 3.617797304346678 9.931564709152163 3.8123052234908856 10.008426796800132 3.96791155880625 10.171758733052057 C 4.133243290078828 10.335090669303986 4.21104645773651 10.527245888423902 4.21104645773651 10.757832151367804 C 4.21104645773651 10.998026175267697 4.133243290078828 11.199789155343609 3.96791155880625 11.363121091595538 C 3.802579827533674 11.526453027847465 3.608071908389468 11.603315115495432 3.384387801373629 11.603315115495432 L 1.380956234188297 11.603315115495432 C 1.1378213352580382 11.603315115495432 0.9335880201566205 11.526453027847465 0.7682562888840445 11.363121091595538 C 0.5931991616542577 11.199789155343609 0.515395993996575 10.998026175267697 0.515395993996575 10.757832151367804 z M 3.355211613501998 4.013183960258751 C 3.355211613501998 3.792205458270847 3.4330147811596805 3.5904424781949347 3.5886211164750463 3.4175027809870113 C 3.783129035619254 3.263778605691078 3.9873623507206712 3.177308757087116 4.230497249650929 3.177308757087116 C 4.434730564752347 3.177308757087116 4.629238483896554 3.2541708447350826 4.804295611126341 3.4175027809870113 L 6.214478024921842 4.839451402474389 C 6.379809756194419 4.993175577770322 6.457612923852101 5.185330796890239 6.457612923852101 5.415917059834136 C 6.457612923852101 5.6465033227780355 6.379809756194419 5.838658541897954 6.214478024921842 5.992382717193887 C 6.049146293649267 6.1557146534458145 5.864363770462269 6.232576741093782 5.630954267489222 6.232576741093782 C 5.378093972601752 6.232576741093782 5.183586053457543 6.1557146534458145 5.037705114099388 5.992382717193887 L 3.5788957205178367 4.60886513953049 C 3.442740177116892 4.445533203278561 3.355211613501998 4.24377022320265 3.355211613501998 4.013183960258751 z M 5.893539958333901 10.757832151367804 C 5.893539958333901 10.075681123492101 6.029695501734847 9.422353378484384 6.311731984493946 8.797848916344659 C 6.584043071295838 8.173344454204932 6.96333351362704 7.625702079713171 7.4204271236159265 7.174137314781367 C 7.887246129562024 6.722572549849565 8.441593699123011 6.357477633521725 9.073744436341686 6.088460326753844 S 10.376947494607874 5.675326605646024 11.07717600352702 5.675326605646024 C 12.010814015419212 5.675326605646024 12.866648859653722 5.905912868589923 13.664131328144974 6.367085394477721 C 14.461613796636223 6.82825792036552 15.093764533854893 7.443154621549251 15.550858143843785 8.230991019940907 C 16.007951753832668 9.009219657376567 16.24136125680571 9.854702621504197 16.24136125680571 10.757832151367804 C 16.24136125680571 10.90194856570774 16.23163586084851 11.03645721909168 16.212185068934087 11.161358111519625 C 15.939873982132195 10.998026175267697 15.628661311501464 10.92116408761973 15.26882166108468 10.92116408761973 C 15.035412158111633 10.92116408761973 14.802002655138581 10.96920289239971 14.568593152165535 11.065280501959668 C 14.578318548122748 10.998026175267697 14.578318548122748 10.892340804751742 14.578318548122748 10.757832151367804 C 14.578318548122748 9.816271577680213 14.237929689620383 9.018827418332561 13.547426576658445 8.355891912368854 C 12.856923463696509 7.692956406405142 12.030264807333634 7.3566847729452896 11.067450607569809 7.3566847729452896 C 10.104636407805984 7.3566847729452896 9.287703147400315 7.692956406405142 8.597200034438378 8.355891912368854 S 7.576033458931291 9.816271577680213 7.576033458931291 10.757832151367804 L 7.576033458931291 10.930771848575725 C 7.29399697617219 10.949987370487719 7.021685889370302 11.026849458135683 6.759100198525623 11.170965872475621 C 6.749374802568412 11.180573633431615 6.72019861469678 11.199789155343609 6.66184623895352 11.238220199167593 S 6.545141487466993 11.324690047771554 6.477063715766521 11.37272885255153 S 6.3409081723655785 11.478414223067487 6.253379608750682 11.555276310715453 S 6.078322481520897 11.709000486011385 6.000519313863214 11.785862573659353 C 5.922716146205531 11.478414223067487 5.893539958333901 11.132534828651638 5.893539958333901 10.757832151367804 z M 5.922716146205531 14.264664900306268 L 5.922716146205531 14.120548485966335 C 5.91299075024832 14.034078637362372 5.922716146205531 13.928393266846413 5.942166938119953 13.80349237441847 C 5.990793917906004 13.457612980002622 6.126949461306948 13.130949107498765 6.350633568322788 12.823500756906899 C 6.477063715766521 12.669776581610964 6.564592279381414 12.564091211095013 6.613219259167467 12.52566016727103 C 6.622944655124677 12.506444645359034 6.632670051081887 12.487229123447044 6.6521208429963075 12.468013601535052 L 6.69102242682515 12.42958255771107 C 6.72019861469678 12.419974796755074 6.759100198525623 12.38154375293109 6.807727178311673 12.333504948151111 C 6.827177970226096 12.314289426239121 6.856354158097726 12.285466143371135 6.885530345969356 12.256642860503147 S 6.943882721712619 12.218211816679165 6.9536081176698294 12.198996294767174 C 7.002235097455881 12.150957489987194 7.0508620772419315 12.122134207119204 7.089763661070774 12.102918685207214 L 7.2550953923433505 11.99723331469126 C 7.391250935744296 11.910763466087298 7.5565826670168725 11.86272466130732 7.741365190203869 11.86272466130732 L 7.770541378075498 11.86272466130732 C 7.8677953376476 11.86272466130732 7.955323901262494 11.872332422263316 8.023401672962967 11.891547944175308 C 8.0525778608346 11.9011557051313 8.09147944466344 11.920371227043292 8.149831820406702 11.95880227086728 L 8.149831820406702 11.968410031823272 C 8.285987363807648 12.026056597559245 8.402692115294172 12.122134207119204 8.480495282951853 12.24703509954715 C 8.558298450609538 12.371935991975098 8.60692543039559 12.506444645359034 8.60692543039559 12.650561059698974 C 8.60692543039559 12.8138929959509 8.558298450609538 12.948401649334842 8.470769886994644 13.054087019850794 C 8.412417511251382 13.140556868454757 8.3346143435937 13.217418956102726 8.256811175936015 13.2750655218387 C 8.237360384021597 13.284673282794698 8.217909592107173 13.29428104375069 8.198458800192753 13.30388880470669 C 8.179008008278332 13.313496565662687 8.159557216363913 13.323104326618681 8.159557216363913 13.323104326618681 L 8.101204840620651 13.361535370442661 C 8.06230325679181 13.390358653310651 8.03312706892018 13.41918193617864 8.003950881048546 13.43839745809063 S 7.945598505305284 13.496044023826604 7.896971525519234 13.544082828606586 C 7.85806994169039 13.592121633386563 7.819168357861551 13.630552677210543 7.789992169989919 13.678591481990525 C 7.760815982118288 13.717022525814507 7.731639794246658 13.774669091550479 7.702463606375026 13.82270789633046 C 7.673287418503395 13.880354462066439 7.6538366265889755 13.938001027802411 7.6538366265889755 13.986039832582392 L 7.6538366265889755 14.130156246922327 C 7.692738210417815 14.274272661262266 7.731639794246658 14.389565792734212 7.760815982118288 14.476035641338175 C 7.828893753818759 14.610544294722116 7.935873109348073 14.745052948106059 8.09147944466344 14.898777123401992 C 8.101204840620651 14.917992645313982 8.179008008278332 14.99485473296195 8.324888947636486 15.138971147301886 C 9.16127299995658 15.888376501869558 9.560014234202203 16.6954284221732 9.501661858458942 17.540911386300838 C 9.48221106654452 17.82914421498071 9.414133294844047 18.107769282704584 9.297428543357524 18.37678658947247 C 9.180723791871003 18.645803896240352 9.044568248470053 18.86678239822826 8.879236517197478 19.049329856392173 C 8.723630181882115 19.23187731455609 8.597200034438378 19.366385967940037 8.499946074866276 19.462463577499996 C 8.402692115294172 19.548933426103957 8.324888947636486 19.616187752795927 8.256811175936015 19.66422655757591 C 8.247085779978805 19.673834318531902 8.227634988064384 19.6834420794879 8.198458800192753 19.702657601399892 C 8.169282612321123 19.721873123311884 8.140106424449492 19.741088645223876 8.130381028492282 19.741088645223876 C 8.0525778608346 19.779519689047856 7.984500089134128 19.79873521095985 7.916422317433653 19.808342971915845 C 7.828893753818759 19.81795073287184 7.770541378075498 19.82755849382784 7.7219143982894485 19.82755849382784 C 7.430152519573136 19.82755849382784 7.196743016600087 19.73148088426788 7.031411285327511 19.53932566514796 C 6.895255741926565 19.37599372889603 6.836903366183305 19.183838509776116 6.856354158097726 18.97246776874421 C 6.875804950012147 18.761097027712303 6.982784305541458 18.588157330504377 7.177292224685667 18.463256438076435 L 7.1870176206428775 18.434433155208445 C 7.196743016600087 18.424825394252448 7.216193808514508 18.405609872340456 7.23564460042893 18.396002111384465 C 7.2550953923433505 18.37678658947247 7.274546184257769 18.35757106756048 7.303722372129401 18.338355545648486 C 7.332898560001033 18.319140023736495 7.362074747872664 18.290316740868512 7.381525539787083 18.26149345800052 C 7.410701727658717 18.23267017513253 7.439877915530347 18.19423913130855 7.459328707444767 18.16541584844056 C 7.4885048953163995 18.126984804616576 7.517681083188029 18.088553760792596 7.537131875102449 18.050122716968616 C 7.566308062974081 18.01169167314463 7.595484250845712 17.96365286836465 7.6149350427601314 17.915614063584673 C 7.644111230631766 17.867575258804692 7.663562022546184 17.81953645402471 7.683012814460605 17.771497649244736 C 7.702463606375026 17.72345884446476 7.712189002332235 17.67542003968478 7.731639794246658 17.6177734739488 C 7.741365190203869 17.56012690821283 7.751090586161078 17.502480342476854 7.751090586161078 17.454441537696873 C 7.770541378075498 17.262286318576958 7.7219143982894485 17.070131099457036 7.605209646802923 16.877975880337125 C 7.5565826670168725 16.772290509821172 7.4885048953163995 16.66660513930522 7.391250935744296 16.560919768789265 C 7.323173164043823 16.484057681141298 7.274546184257769 16.436018876361324 7.24536999638614 16.40719559349333 C 7.157841432771248 16.301510222977377 7.109214452985195 16.243863657241402 7.099489057027984 16.234255896285408 C 7.080038265113564 16.224648135329414 7.060587473199144 16.20543261341742 7.031411285327511 16.176609330549432 S 6.982784305541458 16.13817828672545 6.973058909584249 16.128570525769458 C 6.827177970226096 15.994061872385515 6.72019861469678 15.87876874091356 6.642395447039097 15.782691131353605 C 6.525690695552574 15.62896695605767 6.4381621319376805 15.532889346497715 6.408985944066048 15.475242780761741 C 6.224203420879052 15.22544099590585 6.09777327343532 14.975639211049955 6.029695501734847 14.725837426194067 C 5.990793917906004 14.591328772810126 5.961617730034373 14.485643402294173 5.951892334077163 14.418389075602201 C 5.951892334077163 14.39917355369021 5.942166938119953 14.370350270822222 5.932441542162744 14.341526987954232 S 5.922716146205531 14.293488183174258 5.922716146205531 14.264664900306268 z M 9.69616977760315 13.947608788758405 C 9.69616977760315 13.889962223022431 9.69616977760315 13.851531179198451 9.705895173560359 13.813100135374468 C 9.725345965474778 13.601729394342556 9.793423737175253 13.39996641426665 9.900403092704565 13.198203434190734 C 10.00738244823388 12.996440454114824 10.114361803763193 12.823500756906899 10.24079195120693 12.688992103522956 C 10.367222098650663 12.554483450139015 10.48392685013719 12.42958255771107 10.61035699758092 12.323897187195119 S 10.83404110459676 12.141349729031194 10.911844272254443 12.083703163295223 L 11.028549023740966 12.016448836603251 C 11.174429963099122 11.92997898799929 11.339761694371695 11.881940183219312 11.514818821601486 11.881940183219312 C 11.621798177130799 11.881940183219312 11.719052136702901 11.891547944175308 11.806580700317795 11.910763466087298 C 11.816306096275005 11.910763466087298 11.826031492232215 11.920371227043292 11.855207680103849 11.92997898799929 C 11.884383867975478 11.94919450991128 11.9038346598899 11.95880227086728 11.913560055847109 11.968410031823272 C 11.92328545180432 11.968410031823272 11.933010847761532 11.968410031823272 11.94273624371874 11.97801779277927 C 11.95246163967595 11.97801779277927 11.971912431590372 11.99723331469126 12.010814015419212 12.026056597559245 C 12.20532193456342 12.141349729031194 12.322026686049945 12.314289426239121 12.380379061793207 12.544875689183021 C 12.380379061793207 12.564091211095013 12.380379061793207 12.583306733007003 12.380379061793207 12.612130015874992 C 12.380379061793207 12.631345537786984 12.380379061793207 12.650561059698974 12.380379061793207 12.660168820654967 C 12.380379061793207 12.688992103522956 12.370653665835993 12.727423147346938 12.360928269878785 12.77546195212692 S 12.341477477964366 12.852324039774889 12.341477477964366 12.861931800730881 C 12.273399706263893 13.082910302718785 12.137244162862947 13.236634478014718 11.933010847761532 13.34231984853067 C 11.612072781173591 13.553690589562581 11.437015653943801 13.774669091550479 11.417564862029382 14.005255354494382 C 11.40783946607217 14.082117442142346 11.40783946607217 14.149371768834317 11.417564862029382 14.216626095526289 C 11.437015653943801 14.33191922699824 11.495368029687064 14.456820119426183 11.582896593301957 14.591328772810126 C 11.689875948831272 14.745052948106059 11.767679116488955 14.85073831862201 11.816306096275005 14.898777123401992 C 11.971912431590372 15.052501298697926 12.059440995205268 15.138971147301886 12.088617183076893 15.158186669213878 C 12.20532193456342 15.263872039729831 12.360928269878785 15.427203975981762 12.545710793065783 15.648182477969666 C 13.070882174755143 16.27268694010939 13.314017073685402 16.91640692416111 13.265390093899349 17.569734669168827 C 13.245939301984928 17.857967497848694 13.177861530284455 18.136592565572574 13.06115677879793 18.405609872340456 C 12.944452027311408 18.67462717910834 12.808296483910462 18.895605681096242 12.642964752637885 19.078153139260166 C 12.487358417322518 19.25109283646809 12.351202873921572 19.395209250808026 12.253948914349472 19.491286860367985 C 12.146969558820162 19.587364469927945 12.069166391162474 19.654618796619914 12.010814015419212 19.693049840443894 L 11.894109263932688 19.76991192809186 C 11.787129908403374 19.808342971915845 11.72877753266011 19.82755849382784 11.689875948831272 19.837166254783835 C 11.582896593301957 19.846774015739825 11.514818821601486 19.856381776695823 11.495368029687064 19.856381776695823 L 11.466191841815434 19.856381776695823 C 11.388388674157751 19.856381776695823 11.330036298414488 19.846774015739825 11.281409318628437 19.837166254783835 C 11.261958526714015 19.837166254783835 11.232782338842386 19.837166254783835 11.203606150970753 19.82755849382784 C 11.174429963099122 19.81795073287184 11.14525377522749 19.81795073287184 11.13552837927028 19.81795073287184 C 11.125802983313072 19.81795073287184 11.116077587355857 19.81795073287184 11.10635219139865 19.808342971915845 C 11.096626795441436 19.79873521095985 11.08690139948423 19.79873521095985 11.067450607569809 19.789127450003853 C 11.057725211612599 19.779519689047856 11.047999815655388 19.779519689047856 11.03827441969818 19.779519689047856 C 10.892393480340022 19.673834318531902 10.804864916725128 19.616187752795927 10.785414124810709 19.577756708971943 C 10.629807789495342 19.40481701176402 10.57145541375208 19.212661792644106 10.60063160162371 19.001291051612196 C 10.629807789495342 18.78992031058029 10.736787145024657 18.626588374328364 10.931295064168866 18.49207972094442 L 10.960471252040495 18.453648677120437 C 10.979922043954916 18.434433155208445 11.009098231826547 18.405609872340456 11.047999815655388 18.37678658947247 L 11.16470456714191 18.26149345800052 L 11.291134714585645 18.107769282704584 L 11.40783946607217 17.925221824540664 L 11.495368029687064 17.713851083508764 L 11.534269613515905 17.483264820564862 C 11.543995009473118 17.09895438232503 11.32031090245728 16.6954284221732 10.863217292468391 16.263079179153394 C 10.678434769281393 16.099747242901465 10.54227922588045 15.965238589517524 10.435299870351136 15.849945458045571 C 9.900403092704565 15.187009952081867 9.657268193774305 14.562505489942136 9.69616977760315 13.947608788758405 z M 10.221341159292507 3.2253475618670953 L 10.221341159292507 1.2365410439759643 C 10.221341159292507 1.005954781032066 10.308869722907403 0.804191800956154 10.474201454179978 0.6408598647042255 C 10.639533185452553 0.47752792845229614 10.843766500553972 0.4006658408043301 11.067450607569809 0.4006658408043301 C 11.300860110542859 0.4006658408043301 11.505093425644274 0.47752792845229614 11.67042515691685 0.6408598647042255 C 11.835756888189426 0.804191800956154 11.913560055847109 1.005954781032066 11.913560055847109 1.2365410439759643 L 11.913560055847109 3.2253475618670953 C 11.913560055847109 3.4559338248109945 11.835756888189426 3.638481282974914 11.67042515691685 3.792205458270847 S 11.310585506500066 4.013183960258751 11.07717600352702 4.013183960258751 C 10.843766500553972 4.013183960258751 10.649258581409763 3.9363218726107845 10.48392685013719 3.792205458270847 C 10.308869722907403 3.638481282974914 10.221341159292507 3.4559338248109945 10.221341159292507 3.2253475618670953 z M 13.489074200915187 13.80349237441847 C 13.508524992829608 13.592121633386563 13.57660276453008 13.390358653310651 13.683582120059395 13.188595673234737 C 13.790561475588706 12.986832693158826 13.897540831118022 12.8138929959509 14.023970978561756 12.679384342566964 C 14.15040112600549 12.544875689183021 14.267105877492018 12.419974796755074 14.393536024935749 12.314289426239121 C 14.510240776422275 12.208604055723166 14.607494735994374 12.131741968075202 14.68529790365206 12.074095402339225 L 14.811728051095795 12.006841075647253 C 14.831178843010214 11.987625553735262 14.870080426839055 11.968410031823272 14.908982010667899 11.92997898799929 C 15.015961366197214 11.891547944175308 15.142391513640945 11.86272466130732 15.27854705704189 11.86272466130732 C 15.609210519587045 11.86272466130732 15.852345418517302 11.987625553735262 16.027402545747087 12.227819577635158 C 16.07602952553314 12.295073904327129 16.105205713404775 12.3623282310191 16.124656505319194 12.448798079623062 C 16.1343819012764 12.468013601535052 16.144107297233617 12.49683688440304 16.144107297233617 12.52566016727103 L 16.144107297233617 12.631345537786984 C 16.144107297233617 12.929186127422852 15.998226357875453 13.159772390366754 15.706464479159148 13.30388880470669 C 15.395251808528418 13.505651784782602 15.229920077255837 13.726630286770504 15.200743889384206 13.9668243106704 C 15.161842305555366 14.293488183174258 15.385526412571204 14.67779862141409 15.862070814474514 15.119755625389896 C 16.717905658709025 15.85955321900157 17.106921496997437 16.66660513930522 17.058294517211383 17.521695864388846 C 17.038843725296964 17.80992869306872 16.970765953596494 18.088553760792596 16.85406120210997 18.35757106756048 C 16.737356450623444 18.626588374328364 16.59147551126529 18.847566876316264 16.43586917594992 19.03011433448018 C 16.270537444677345 19.212661792644106 16.144107297233617 19.34717044602805 16.05657873361872 19.443248055588004 S 15.881521606388937 19.59697223088394 15.813443834688464 19.645011035663916 C 15.657837499373096 19.741088645223876 15.52168195597215 19.789127450003853 15.414702600442839 19.79873521095985 C 15.385526412571204 19.808342971915845 15.336899432785152 19.808342971915845 15.26882166108468 19.808342971915845 C 14.977059782368373 19.808342971915845 14.753375675352533 19.712265362355883 14.597769340037168 19.52011014323597 C 14.451888400679008 19.356778206984043 14.393536024935749 19.164622987864124 14.41298681685017 18.953252246832214 S 14.5394169642939 18.568941808592385 14.724199487480902 18.444040916164443 C 14.753375675352533 18.434433155208445 14.811728051095795 18.386394350428468 14.899256614710689 18.3095322627805 S 15.074313741940472 18.107769282704584 15.181293097469785 17.944437346452656 C 15.27854705704189 17.771497649244736 15.336899432785152 17.608165712992808 15.346624828742364 17.435226015784885 C 15.366075620656783 17.050915577545048 15.132666117683737 16.647389617393227 14.66584711173764 16.215040374373416 C 14.267105877492018 15.869160979957565 13.955893206861283 15.494458302673733 13.751659891759868 15.100540103477906 C 13.51825038878682 14.69701414332608 13.430721825171926 14.255057139350269 13.489074200915187 13.80349237441847 z M 15.716189875116356 5.425524820790134 C 15.716189875116356 5.185330796890239 15.793993042774044 4.993175577770322 15.939873982132195 4.849059163430384 L 17.35978179188491 3.4271105419430063 C 17.534838919114694 3.263778605691078 17.729346838258902 3.1869165180431116 17.953030945274737 3.1869165180431116 C 18.186440448247787 3.1869165180431116 18.38094836739199 3.2733863666470735 18.546280098664568 3.4367183028990023 S 18.79914039355204 3.8018132192268426 18.79914039355204 4.022791721214746 C 18.79914039355204 4.262985745114642 18.711611829937148 4.464748725190554 18.546280098664568 4.618472900486484 L 17.106921496997437 6.001990478149882 C 16.931864369767652 6.1653224144018095 16.737356450623444 6.242184502049776 16.51367234360761 6.242184502049776 C 16.289988236591768 6.242184502049776 16.095480317447564 6.1653224144018095 15.949599378089406 6.001990478149882 C 15.793993042774044 5.84826630285395 15.716189875116356 5.6465033227780355 15.716189875116356 5.425524820790134 z M 17.953030945274737 10.757832151367804 C 17.953030945274737 10.546461410335892 18.04055950888963 10.354306191215978 18.205891240162206 10.171758733052057 C 18.361497575477575 10.008426796800132 18.546280098664568 9.931564709152163 18.769964205680406 9.931564709152163 L 20.77339577286574 9.931564709152163 C 21.00680527583879 9.931564709152163 21.21103859094021 10.018034557756124 21.376370322212786 10.181366494008055 S 21.638956013057463 10.5368536493799 21.638956013057463 10.757832151367804 C 21.638956013057463 10.9884184143117 21.551427449442574 11.190181394387615 21.386095718169997 11.353513330639542 C 21.21103859094021 11.51684526689147 21.016530671795998 11.603315115495432 20.77339577286574 11.603315115495432 L 18.769964205680406 11.603315115495432 C 18.53655470270736 11.603315115495432 18.33232138760594 11.526453027847465 18.186440448247787 11.363121091595538 C 18.03083411293242 11.199789155343609 17.953030945274737 10.998026175267697 17.953030945274737 10.757832151367804 z" width="0" height="0"/>
 </g>
</svg>