<svg width="22" height="22" xmlns="http://www.w3.org/2000/svg">

 <g width="0" height="0">
  <title width="0" height="0">Layer 1</title>
  <path fill="#dfefdf" id="imagebot_2" d="M -5.7220458593576495e-8 10.679999980926514 C -5.7220458593576495e-8 11.549999980926515 0.20999994277954137 12.359999980926514 0.6399999427795411 13.109999980926514 C 1.059999942779541 13.859999980926514 1.6499999427795409 14.459999980926515 2.3799999427795413 14.909999980926514 C 3.109999942779541 15.369999980926515 3.9199999427795404 15.609999980926514 4.809999942779541 15.629999980926513 C 4.92999994277954 15.629999980926513 4.9999999427795405 15.569999980926514 4.9999999427795405 15.459999980926515 L 4.9999999427795405 14.119999980926515 C 4.9999999427795405 13.999999980926514 4.939999942779542 13.939999980926515 4.809999942779541 13.939999980926515 C 3.9499999427795416 13.899999980926513 3.219999942779541 13.549999980926515 2.6199999427795415 12.909999980926514 S 1.7099999427795414 11.519999980926514 1.7099999427795414 10.669999980926512 C 1.7099999427795414 9.819999980926514 1.9899999427795407 9.079999980926514 2.559999942779541 8.459999980926513 C 3.1299999427795413 7.839999980926514 3.8299999427795406 7.489999980926514 4.6699999427795404 7.419999980926514 L 5.189999942779542 7.349999980926514 C 5.319999942779541 7.349999980926514 5.389999942779541 7.289999980926513 5.389999942779541 7.179999980926514 L 5.459999942779541 6.659999980926514 C 5.569999942779541 5.559999980926513 6.029999942779542 4.639999980926515 6.83999994277954 3.8999999809265145 S 8.609999942779542 2.7899999809265132 9.709999942779541 2.7899999809265132 C 10.799999942779541 2.7899999809265132 11.74999994277954 3.1599999809265142 12.569999942779543 3.889999980926513 C 13.38999994277954 4.619999980926513 13.84999994277954 5.539999980926513 13.969999942779541 6.619999980926513 L 14.04999994277954 7.199999980926513 C 14.04999994277954 7.309999980926513 14.109999942779542 7.369999980926513 14.229999942779543 7.369999980926513 L 15.84999994277954 7.369999980926513 C 16.749999942779542 7.369999980926513 17.519999942779542 7.689999980926514 18.16999994277954 8.339999980926514 C 18.819999942779543 8.989999980926514 19.13999994277954 9.759999980926514 19.13999994277954 10.659999980926514 C 19.13999994277954 11.509999980926512 18.839999942779542 12.259999980926512 18.229999942779543 12.899999980926513 C 17.61999994277954 13.539999980926513 16.89999994277954 13.879999980926513 16.04999994277954 13.929999980926514 C 15.91999994277954 13.929999980926514 15.84999994277954 13.989999980926513 15.84999994277954 14.109999980926514 L 15.84999994277954 15.449999980926513 C 15.84999994277954 15.559999980926513 15.91999994277954 15.619999980926515 16.04999994277954 15.619999980926515 C 16.929999942779542 15.599999980926512 17.73999994277954 15.359999980926514 18.46999994277954 14.899999980926513 C 19.19999994277954 14.449999980926513 19.77999994277954 13.849999980926512 20.19999994277954 13.099999980926512 S 20.82999994277954 11.539999980926513 20.82999994277954 10.669999980926512 C 20.82999994277954 9.939999980926515 20.68999994277954 9.269999980926514 20.409999942779542 8.649999980926514 C 21.21999994277954 7.659999980926514 21.61999994277954 6.5299999809265135 21.61999994277954 5.2799999809265135 C 21.61999994277954 4.319999980926514 21.37999994277954 3.4399999809265136 20.909999942779542 2.629999980926513 S 19.79999994277954 1.1799999809265138 18.98999994277954 0.7099999809265141 C 18.179999942779542 0.23999998092651342 17.29999994277954 -1.907348590179936e-8 16.34999994277954 -1.907348590179936e-8 C 15.609999942779542 -1.907348590179936e-8 14.88999994277954 0.14999998092651357 14.199999942779542 0.4599999809265132 C 13.519999942779542 0.7999999809265139 12.929999942779542 1.2199999809265138 12.429999942779542 1.7699999809265137 C 11.549999942779541 1.339999980926514 10.64999994277954 1.1199999809265133 9.719999942779541 1.1199999809265133 C 8.299999942779541 1.1199999809265133 7.039999942779541 1.5599999809265137 5.939999942779542 2.4399999809265136 S 4.129999942779541 4.439999980926514 3.819999942779541 5.809999980926513 C 2.6999999427795407 6.099999980926514 1.7799999427795408 6.689999980926514 1.059999942779541 7.589999980926514 C 0.34999994277954105 8.489999980926514 -5.7220458593576495e-8 9.519999980926514 -5.7220458593576495e-8 10.679999980926514 z M 5.329999942779541 17.749999980926514 C 5.329999942779541 17.919999980926512 5.379999942779541 18.089999980926514 5.489999942779541 18.259999980926512 C 5.59999994277954 18.429999980926514 5.75999994277954 18.539999980926513 5.959999942779541 18.609999980926514 C 6.189999942779542 18.679999980926514 6.399999942779541 18.669999980926512 6.59999994277954 18.569999980926514 C 6.789999942779541 18.479999980926515 6.9199999427795404 18.289999980926513 6.989999942779541 18.009999980926512 L 7.129999942779541 17.399999980926513 C 7.17999994277954 17.169999980926512 7.149999942779541 16.959999980926515 7.039999942779541 16.769999980926514 C 6.92999994277954 16.569999980926514 6.75999994277954 16.439999980926515 6.519999942779542 16.369999980926515 C 6.299999942779541 16.299999980926515 6.079999942779541 16.329999980926512 5.879999942779541 16.449999980926513 S 5.539999942779541 16.749999980926514 5.479999942779541 16.979999980926515 L 5.33999994277954 17.569999980926514 C 5.33999994277954 17.599999980926512 5.329999942779541 17.659999980926514 5.329999942779541 17.749999980926514 z M 6.08999994277954 14.849999980926512 C 6.08999994277954 15.059999980926513 6.1699999427795404 15.249999980926514 6.33999994277954 15.419999980926512 C 6.4999999427795405 15.589999980926514 6.679999942779542 15.669999980926512 6.899999942779541 15.669999980926512 C 7.139999942779541 15.669999980926512 7.33999994277954 15.589999980926514 7.4999999427795405 15.429999980926514 C 7.659999942779541 15.269999980926514 7.739999942779541 15.079999980926512 7.739999942779541 14.839999980926514 C 7.739999942779541 14.609999980926514 7.659999942779541 14.409999980926514 7.4999999427795405 14.249999980926514 C 7.33999994277954 14.089999980926514 7.139999942779541 14.009999980926512 6.899999942779541 14.009999980926512 C 6.6699999427795404 14.009999980926512 6.479999942779541 14.089999980926514 6.319999942779541 14.239999980926513 C 6.1699999427795404 14.419999980926512 6.08999994277954 14.619999980926515 6.08999994277954 14.849999980926512 z M 6.699999942779542 12.579999980926512 C 6.689999942779542 12.739999980926513 6.729999942779541 12.889999980926515 6.83999994277954 13.029999980926515 C 6.939999942779542 13.179999980926514 7.09999994277954 13.279999980926515 7.319999942779541 13.349999980926512 C 7.529999942779542 13.409999980926514 7.729999942779541 13.389999980926515 7.939999942779542 13.279999980926515 C 8.14999994277954 13.169999980926512 8.279999942779542 12.999999980926514 8.34999994277954 12.769999980926514 L 8.629999942779541 11.869999980926515 C 8.699999942779542 11.629999980926513 8.679999942779542 11.409999980926514 8.559999942779541 11.219999980926513 C 8.439999942779542 11.029999980926515 8.25999994277954 10.899999980926513 8.019999942779542 10.829999980926512 C 7.799999942779541 10.759999980926512 7.58999994277954 10.779999980926515 7.389999942779541 10.899999980926513 C 7.189999942779542 11.009999980926512 7.049999942779541 11.179999980926514 6.979999942779541 11.399999980926513 L 6.739999942779541 12.319999980926514 C 6.739999942779541 12.339999980926514 6.729999942779541 12.379999980926513 6.719999942779541 12.439999980926515 C 6.709999942779541 12.489999980926513 6.699999942779542 12.539999980926513 6.699999942779542 12.579999980926512 z M 7.859999942779542 20.869999980926515 C 7.859999942779542 21.049999980926515 7.909999942779541 21.209999980926515 8.00999994277954 21.369999980926515 C 8.109999942779542 21.529999980926515 8.269999942779542 21.639999980926515 8.48999994277954 21.699999980926513 C 8.56999994277954 21.719999980926513 8.65999994277954 21.729999980926515 8.73999994277954 21.729999980926515 C 9.16999994277954 21.729999980926515 9.42999994277954 21.529999980926515 9.529999942779542 21.119999980926515 L 9.66999994277954 20.529999980926515 C 9.729999942779541 20.269999980926514 9.699999942779542 20.049999980926515 9.58999994277954 19.849999980926512 S 9.299999942779541 19.529999980926515 9.06999994277954 19.479999980926515 C 8.859999942779542 19.409999980926514 8.64999994277954 19.429999980926514 8.439999942779542 19.549999980926515 C 8.229999942779541 19.669999980926512 8.09999994277954 19.839999980926514 8.029999942779542 20.059999980926513 L 7.889999942779541 20.649999980926513 C 7.8699999427795415 20.739999980926513 7.859999942779542 20.809999980926513 7.859999942779542 20.869999980926515 z M 8.639999942779541 17.969999980926513 C 8.639999942779541 18.189999980926515 8.719999942779541 18.379999980926513 8.889999942779541 18.549999980926515 C 9.049999942779541 18.709999980926515 9.23999994277954 18.789999980926513 9.459999942779541 18.789999980926513 C 9.699999942779542 18.789999980926513 9.889999942779541 18.709999980926515 10.049999942779541 18.559999980926513 C 10.209999942779541 18.399999980926513 10.279999942779542 18.209999980926515 10.279999942779542 17.969999980926513 C 10.279999942779542 17.739999980926513 10.199999942779542 17.549999980926515 10.049999942779541 17.389999980926515 C 9.889999942779541 17.229999980926515 9.699999942779542 17.159999980926514 9.459999942779541 17.159999980926514 S 9.029999942779542 17.239999980926513 8.869999942779542 17.389999980926515 C 8.719999942779541 17.539999980926513 8.639999942779541 17.739999980926513 8.639999942779541 17.969999980926513 z M 9.269999942779542 15.699999980926513 C 9.25999994277954 15.849999980926512 9.299999942779541 16.009999980926512 9.39999994277954 16.169999980926512 S 9.64999994277954 16.429999980926514 9.84999994277954 16.469999980926513 C 10.07999994277954 16.529999980926515 10.289999942779541 16.509999980926512 10.48999994277954 16.409999980926514 S 10.81999994277954 16.119999980926515 10.89999994277954 15.849999980926512 L 11.16999994277954 14.949999980926513 C 11.23999994277954 14.729999980926515 11.219999942779541 14.519999980926514 11.09999994277954 14.319999980926514 C 10.979999942779541 14.119999980926515 10.809999942779541 13.989999980926513 10.56999994277954 13.919999980926512 C 10.34999994277954 13.849999980926512 10.139999942779541 13.879999980926513 9.92999994277954 13.999999980926514 C 9.719999942779541 14.119999980926515 9.58999994277954 14.299999980926515 9.519999942779542 14.529999980926515 L 9.289999942779541 15.429999980926514 C 9.279999942779542 15.509999980926512 9.269999942779542 15.599999980926512 9.269999942779542 15.699999980926513 z M 12.019999942779542 17.849999980926512 C 12.019999942779542 18.009999980926512 12.069999942779543 18.169999980926512 12.16999994277954 18.329999980926512 S 12.429999942779542 18.599999980926512 12.629999942779541 18.659999980926514 C 12.659999942779542 18.659999980926514 12.70999994277954 18.669999980926512 12.769999942779542 18.679999980926514 S 12.86999994277954 18.699999980926513 12.909999942779542 18.699999980926513 C 13.319999942779543 18.699999980926513 13.569999942779543 18.479999980926515 13.66999994277954 18.039999980926513 L 13.809999942779541 17.439999980926515 C 13.879999942779541 17.229999980926515 13.859999942779542 17.019999980926514 13.73999994277954 16.809999980926513 C 13.629999942779541 16.599999980926512 13.45999994277954 16.469999980926513 13.229999942779543 16.399999980926513 C 12.979999942779543 16.339999980926514 12.749999942779542 16.359999980926514 12.54999994277954 16.479999980926515 C 12.34999994277954 16.599999980926512 12.20999994277954 16.769999980926514 12.13999994277954 17.009999980926512 L 12.04999994277954 17.599999980926512 C 12.04999994277954 17.619999980926515 12.039999942779541 17.669999980926512 12.02999994277954 17.719999980926513 S 12.019999942779542 17.809999980926513 12.019999942779542 17.849999980926512 z M 12.75999994277954 14.889999980926515 C 12.75999994277954 15.109999980926514 12.839999942779542 15.309999980926513 13.00999994277954 15.459999980926515 C 13.159999942779542 15.619999980926515 13.34999994277954 15.699999980926513 13.57999994277954 15.699999980926513 C 13.819999942779543 15.699999980926513 14.00999994277954 15.619999980926515 14.16999994277954 15.469999980926513 C 14.32999994277954 15.309999980926513 14.39999994277954 15.119999980926515 14.39999994277954 14.889999980926515 C 14.39999994277954 14.649999980926513 14.319999942779543 14.459999980926515 14.16999994277954 14.299999980926515 C 14.00999994277954 14.139999980926515 13.819999942779543 14.069999980926514 13.57999994277954 14.069999980926514 C 13.339999942779542 14.069999980926514 13.14999994277954 14.149999980926513 12.98999994277954 14.299999980926515 S 12.75999994277954 14.649999980926513 12.75999994277954 14.889999980926515 z M 13.36999994277954 12.579999980926512 C 13.36999994277954 12.749999980926514 13.41999994277954 12.909999980926514 13.52999994277954 13.059999980926513 S 13.79999994277954 13.319999980926514 14.019999942779542 13.379999980926513 C 14.039999942779541 13.379999980926513 14.07999994277954 13.389999980926515 14.13999994277954 13.399999980926513 S 14.249999942779542 13.419999980926512 14.27999994277954 13.419999980926512 C 14.379999942779541 13.419999980926512 14.499999942779542 13.389999980926515 14.63999994277954 13.329999980926512 C 14.84999994277954 13.219999980926513 14.98999994277954 13.039999980926513 15.04999994277954 12.809999980926513 L 15.289999942779541 11.909999980926514 C 15.34999994277954 11.679999980926514 15.32999994277954 11.469999980926513 15.219999942779541 11.279999980926515 C 15.109999942779542 11.079999980926512 14.93999994277954 10.949999980926513 14.70999994277954 10.879999980926513 C 14.479999942779543 10.809999980926513 14.269999942779542 10.829999980926512 14.069999942779543 10.939999980926515 C 13.879999942779541 11.049999980926515 13.749999942779542 11.209999980926515 13.679999942779542 11.449999980926513 L 13.39999994277954 12.359999980926514 C 13.39999994277954 12.379999980926513 13.38999994277954 12.419999980926512 13.379999942779541 12.479999980926515 C 13.379999942779541 12.509999980926512 13.36999994277954 12.549999980926515 13.36999994277954 12.579999980926512 z M 13.839999942779542 2.7799999809265135 C 14.52999994277954 2.089999980926514 15.36999994277954 1.7399999809265134 16.34999994277954 1.7399999809265134 C 17.32999994277954 1.7399999809265134 18.16999994277954 2.089999980926514 18.85999994277954 2.7899999809265132 C 19.54999994277954 3.4899999809265143 19.89999994277954 4.329999980926514 19.89999994277954 5.309999980926513 C 19.89999994277954 5.9799999809265145 19.729999942779543 6.589999980926514 19.38999994277954 7.159999980926514 C 18.429999942779542 6.199999980926513 17.249999942779542 5.719999980926513 15.84999994277954 5.719999980926513 L 15.52999994277954 5.719999980926513 C 15.249999942779542 4.539999980926513 14.68999994277954 3.559999980926513 13.839999942779542 2.7799999809265135 z" width="0" height="0"/>
 </g>
</svg>