<svg width="16" height="16" xmlns="http://www.w3.org/2000/svg">

 <g width="0" height="0">
  <title width="0" height="0">Layer 1</title>
  <path transform="null" fill="#dfefdf" id="imagebot_2" d="M 0.054975614397824876 12.2155649069662 C 0.054975614397824876 13.1788499823923 0.39103532709368843 14.013034996163363 1.0727564585624392 14.718119948279371 C 1.754477590031189 15.423204900395385 2.561020900501262 15.770781989466661 3.492386389972653 15.770781989466661 L 10.069555052734543 15.770781989466661 C 11.000920542205938 15.770781989466661 11.797862146598982 15.423204900395385 12.460379865913685 14.728050722252839 C 13.122897585228383 14.032896544110292 13.45895729792425 13.198711530339235 13.45895729792425 12.2155649069662 C 13.45895729792425 11.738887756239881 13.391745355385076 11.331726023327818 13.25732147030673 10.994079708230009 C 14.05426307469978 10.46774868763637 14.687975675783408 9.762663735520356 15.148857567480587 8.88875562585544 C 15.60973945917777 8.014847516190521 15.849782111103387 7.071423988711349 15.849782111103387 6.068415817391387 C 15.849782111103387 5.264023125540724 15.696154813870992 4.489422755610458 15.39850192548323 3.75454548157405 C 15.09124733101844 3.0196682075376424 14.687975675783408 2.384098673235886 14.169483547624072 1.8577676526422418 S 13.04608393661219 0.9044133511896059 12.335557686912361 0.5866285840387266 C 11.62503143721254 0.26884381688784753 10.885700069281642 0.1099514333124079 10.10796187704264 0.1099514333124079 C 9.061375914646954 0.1099514333124079 8.091603600867465 0.3780823305959616 7.208246641781197 0.9143441251630706 S 5.623965139072127 2.175552419793121 5.115074716989819 3.079252851378433 C 4.6061842949075125 3.9928840569372097 4.3565399369048725 4.985961454283706 4.3565399369048725 6.068415817391387 L 4.3565399369048725 6.406062132489196 C 3.3867676231253823 6.9721162489766995 2.7530550220417545 7.806301262747756 2.445800427576965 8.878824851881973 C 1.7160707657230911 9.11716342724513 1.139968401101612 9.53425593413066 0.7078916276355022 10.140033146512023 C 0.27581485416939244 10.745810358893385 0.054975614397824876 11.440964537035931 0.054975614397824876 12.2155649069662 z M 1.9561134176487076 12.2155649069662 C 1.9561134176487076 11.798472400080675 2.080935596650029 11.440964537035931 2.3401816607296944 11.143041317831987 C 2.59942772480936 10.845118098628037 2.925885731428198 10.67629494107913 3.3195556805862094 10.636571845185271 L 3.9244631634387637 10.557125653397554 C 4.039683636363058 10.557125653397554 4.106895578902232 10.477679461609831 4.106895578902232 10.328717852007859 L 4.202912639672477 9.772594509493818 C 4.2701245822116505 9.196609619032852 4.500565528060243 8.719932468306533 4.903837183295278 8.342563057314866 C 5.307108838530314 7.955262872349731 5.777592436304522 7.766578166853898 6.324889682694928 7.766578166853898 C 6.8817886351623585 7.766578166853898 7.371475645090616 7.955262872349731 7.774747300325651 8.342563057314866 C 8.18762066163771 8.72986324228 8.427663313563327 9.206540393006314 8.4948752561025 9.772594509493818 L 8.571688904718698 10.418094817769044 C 8.629299141180844 10.567056427371016 8.715714495874067 10.646502619158738 8.811731556644315 10.646502619158738 L 10.069555052734543 10.646502619158738 C 10.482428414046602 10.646502619158738 10.837691538896516 10.805395002734178 11.144946133361307 11.11324899591159 C 11.452200727826096 11.421102989089002 11.596226318981465 11.788541626107207 11.596226318981465 12.225495680939668 C 11.596226318981465 12.67238050974559 11.442599021749068 13.049749920737257 11.144946133361307 13.367534687888137 S 10.482428414046602 13.844211838614456 10.069555052734543 13.844211838614456 L 3.492386389972653 13.844211838614456 C 3.0603096165065438 13.844211838614456 2.6954447855796064 13.685319455039016 2.397791897191843 13.367534687888137 S 1.9561134176487076 12.662449735772123 1.9561134176487076 12.2155649069662 z M 6.209669209770631 5.869800337922089 C 6.276881152309804 4.787345974814408 6.680152807544839 3.873714769255631 7.429085881552762 3.1289067212457584 C 8.178018955560688 2.3940294472093506 9.07097762072398 2.016660036217681 10.117563583119667 2.016660036217681 C 11.183352957669404 2.016660036217681 12.095515034986745 2.4138909951562804 12.84444810899467 3.198422139060012 C 13.593381183002595 3.982953282963745 13.967847720006558 4.946238358389845 13.967847720006558 6.068415817391387 C 13.967847720006558 6.763569995533934 13.804618716697135 7.409070303809157 13.478160710078297 8.004916742217056 C 13.15170270345946 8.600763180624954 12.710024223916324 9.077440331351271 12.153125271448896 9.444878968369476 C 11.58662461290444 8.95827104366969 10.933708599666765 8.719932468306533 10.203978937812888 8.719932468306533 C 9.925529461579176 7.846024358641618 9.426240745573892 7.160800954472533 8.725316201951093 6.6444007078523555 C 8.024391658328291 6.128000461232178 7.227450053935246 5.869800337922089 6.334491388771952 5.869800337922089 L 6.209669209770631 5.869800337922089 z" width="0" height="0"/>
 </g>
</svg>