<svg width="14" height="14" xmlns="http://www.w3.org/2000/svg">

 <g width="0" height="0">
  <title width="0" height="0">Layer 1</title>
  <path transform="null" fill="#dfefdf" id="imagebot_2" d="M 0.06871957482217383 6.965310599894187 C 0.06871957482217383 6.042105421190912 0.25414546610234756 5.166983845545101 0.6152379912268984 4.320712431733766 S 1.4740526455771783 2.753186972060498 2.088885864032494 2.147333573536475 C 2.7037190824878072 1.5414801750124507 3.445422647608504 1.0510274238263364 4.304237301958786 0.6855920405896239 C 5.163051956309067 0.3201566573529112 6.060903640402542 0.1374389657345545 6.988033096803413 0.1374389657345545 L 8.100588444484458 0.1374389657345545 C 8.256736563457238 0.1759058481805243 8.325051365507829 0.27207305429544837 8.325051365507829 0.406707142856343 L 8.373847652686822 1.2529785566676768 C 8.412884682430017 2.474302074327218 8.852051267040954 3.512907900368402 9.710865921391234 4.368796034791227 C 10.569680575741517 5.224684169214055 11.604161863936172 5.686286758565693 12.824069043411003 5.734370361623154 L 13.624328153146493 5.801687405903601 C 13.780476272119271 5.801687405903601 13.858550331605658 5.87862117079554 13.858550331605658 6.022871979967928 L 13.858550331605658 6.965310599894187 C 13.86830958904146 8.19625083816522 13.565772608531699 9.34064059093282 12.950939390076385 10.388863137585494 C 12.33610617162107 11.43708568423817 11.506569289578184 12.264123656826518 10.442810229076132 12.879593775962036 C 9.388810426009881 13.485447174486062 8.22745879114984 13.793182234053816 6.978273839367614 13.793182234053816 C 6.031625868095145 13.793182234053816 5.124014926565872 13.610464542435464 4.265200272215592 13.254645879810242 S 2.674441310180412 12.408374465998909 2.0596080917250967 11.802521067474885 C 1.444774873269783 11.196667668950859 0.9568120014798507 10.465796902477434 0.5957194763552998 9.629142209277594 C 0.25414546610234756 8.782870795466257 0.06871957482217383 7.898132499208953 0.06871957482217383 6.965310599894187 z M 1.8546636855733258 6.965310599894187 C 1.8546636855733258 7.696181366367613 2.001052547110306 8.38858525039507 2.293830270184264 9.042522251976555 C 2.5866079932582244 9.686842532946546 2.9769782906901705 10.234995607801615 3.4551819050443044 10.677364755930268 C 3.933385519398438 11.119733904058924 4.479903935803161 11.46593584607265 5.104496411694274 11.715970581971453 C 5.719329630149589 11.975622038481747 6.3536813634765 12.100639406431151 6.997792354239212 12.100639406431151 C 7.563829285515533 12.100639406431151 8.139625474227653 11.994855479704736 8.715421662939773 11.773670905640408 C 9.291217851651894 11.552486331576082 9.827977010620819 11.244751272008322 10.32569913984655 10.850465726937133 C 10.82342126907228 10.456180181865943 11.243069338811623 9.956110710068335 11.604161863936172 9.34064059093282 C 11.965254389060723 8.725170471797302 12.18971731008409 8.061616749604324 12.297069141877877 7.3307459831309 C 10.706310179842696 7.003777482340156 9.427847455753074 6.330607039535686 8.471440227044807 5.311234654717487 S 6.958755324496018 3.099388914074227 6.812366462959037 1.7145811460193143 C 5.875477749122367 1.7722814696882696 5.036181609643684 2.0511663674215495 4.265200272215592 2.5608525598306495 C 3.5039781922232964 3.0705387522397487 2.9086634886395797 3.7148590332097418 2.4890154189002383 4.503430123352122 C 2.069367349160897 5.292001213494503 1.8546636855733258 6.10942246547136 1.8546636855733258 6.965310599894187 z" width="0" height="0"/>
 </g>
</svg>