<svg width="21" height="21" xmlns="http://www.w3.org/2000/svg">

 <g width="0" height="0">
  <title width="0" height="0">Layer 1</title>
  <path fill="#dfefdf" id="imagebot_2" d="M 0.26843600651858446 9.553494094519158 C 0.26843600651858446 10.666302941946526 0.5942252176150817 11.649946476726074 1.2359312394718192 12.524296285419009 C 1.8776372613285555 13.388710300831336 2.716791289910443 13.984857897667428 3.753393325217479 14.302803282646677 C 3.8422449282437965 14.322674869207878 3.9212241309338567 14.292867489366074 3.9903309332876593 14.223316936401863 L 5.1355293722935285 12.802498497275849 C 4.256885742366611 12.802498497275849 3.506583316811042 12.4845531122966 2.88462209562682 11.848662342338104 C 2.2626608744425982 11.21277157237961 1.946744063682358 10.447715489773291 1.946744063682358 9.553494094519158 C 1.946744063682358 8.718887458948632 2.223171273097568 7.983638756184121 2.776025691927987 7.367619572786828 S 4.019948134296431 6.403847624568482 4.849229762542061 6.334297071604271 L 5.372466980363709 6.26474651864006 C 5.481063384062541 6.26474651864006 5.530425385743828 6.2250033455176546 5.530425385743828 6.135581205992241 L 5.609404588433887 5.589112575559159 C 5.727873392468978 4.4961753146929935 6.19187620827308 3.5920181261582567 6.981668235173679 2.87664100995495 S 8.709338294018739 1.8035753356499875 9.795302331007065 1.8035753356499875 C 10.881266367995389 1.8035753356499875 11.829016800276108 2.161263893751641 12.628681227512963 2.886576803235551 C 13.438218055086077 3.611889712719459 13.882476070217667 4.516046901254196 13.98120007358024 5.589112575559159 L 14.050306875934043 6.165388585834045 C 14.070051676606559 6.274682311920663 14.149030879296621 6.334297071604271 14.267499683331707 6.334297071604271 L 15.866828537805421 6.334297071604271 C 16.755344568068594 6.334297071604271 17.515519393960425 6.65224245658352 18.137480615144646 7.278197433261415 S 19.075358647089107 8.659272699265024 19.075358647089107 9.553494094519158 C 19.075358647089107 10.378164936809084 18.798931437673897 11.103477846292991 18.246077018843476 11.719497029690285 S 17.012026976811292 12.693204771189233 16.202490149238177 12.792562703995248 C 16.084021345203084 12.792562703995248 15.926062939822966 12.812434290556451 15.718742532761562 12.852177463678856 C 15.531166926372666 12.87204905024006 15.392953321665061 12.94159960320427 15.313974118975004 13.08070070913269 L 12.984087639618235 15.85278703442051 C 12.845874034910631 16.031631313471337 12.786639632893083 16.240282972363968 12.826129234238115 16.478742011098404 C 12.855746435246886 16.71720104983284 12.964342838945718 16.905981122164267 13.132173644662098 17.04508222809269 C 13.240770048360927 17.16431174745991 13.418473254413563 17.233862300424118 13.685028063492515 17.233862300424118 C 13.941710472235211 17.233862300424118 14.149030879296621 17.1146327810569 14.287244484004221 16.886109535603065 L 16.38019335529081 14.4617759751363 C 17.60437099698674 14.332610662488479 18.640973032293775 13.806013618616602 19.489999461211923 12.862113256959459 C 20.339025890130067 11.918212895302315 20.75366670425288 10.815339841155549 20.75366670425288 9.553494094519158 C 20.75366670425288 8.887795944718858 20.625325499881534 8.241969381479759 20.368643091138836 7.635885991363068 C 20.111960682396145 7.029802601246377 19.76642667062713 6.503205557374496 19.3320410558318 6.066030653028031 C 18.897655441036473 5.628855748681565 18.374418223214825 5.281102983860513 17.772201802703115 5.022772358564873 C 17.16998538219141 4.7644417332692335 16.538151760670928 4.635276420621415 15.866828537805421 4.635276420621415 L 15.550911727045182 4.635276420621415 C 15.225122515948687 3.3237517075820167 14.524182092074403 2.240750239996453 13.457962855758593 1.3962078111453258 S 11.167565977746856 0.13436206450893468 9.785429930670805 0.13436206450893468 C 8.86729669939886 0.13436206450893468 7.998525469808201 0.33307793012096487 7.1889886422350875 0.7305096613450253 C 6.379451814661972 1.127941392569084 5.698256191460206 1.6744100230021672 5.1355293722935285 2.379851345924875 S 4.207523740685323 3.8900919245763026 4.019948134296431 4.784313319830438 C 2.914239296635592 5.032708151845475 2.005978465699903 5.599048368839759 1.305038041825621 6.4932697640938954 C 0.6139700182875972 7.377555366067429 0.26843600651858446 8.400942073969384 0.26843600651858446 9.553494094519158 z M 3.6053073201736168 17.522000305561562 C 3.6053073201736168 17.581615065245174 3.625052120846131 17.680972998051185 3.6645417221911623 17.820074103979607 C 3.753393325217479 18.028725762872238 3.891606929925085 18.17776266208126 4.098927336986492 18.257249008326074 C 4.316120144384157 18.35660694113209 4.533312951781821 18.36654273441269 4.760378159515743 18.277120594887275 C 4.987443367249666 18.187698455361865 5.1355293722935285 18.03866155615284 5.214508574983589 17.83000989726021 C 5.313232578346163 17.611422445086976 5.32310497868242 17.402770786194342 5.234253375656103 17.18418333402111 C 5.145401772629786 16.97553167512848 4.997315767585923 16.826494775919457 4.780122960188258 16.756944222955248 C 4.562930152790594 16.64765049686863 4.345737345392928 16.637714703588028 4.138416938331522 16.727136843113442 C 3.9310965312701143 16.816558982638853 3.783010526226251 16.96559588184788 3.684286522863677 17.194119127301715 C 3.6349245211823886 17.293477060107726 3.6053073201736168 17.402770786194342 3.6053073201736168 17.522000305561562 z M 5.431701382381252 15.097666745094797 L 5.431701382381252 15.19702467790081 C 5.451446183053768 15.425547923354646 5.550170186416343 15.604392202405473 5.727873392468978 15.753429101614497 C 5.954938600202901 15.882594414262314 6.152386606928049 15.942209173945923 6.339962213316941 15.942209173945923 C 6.557155020714607 15.942209173945923 6.764475427776015 15.832915447859307 6.94217863382865 15.614327995686075 L 9.232575511840388 12.862113256959459 C 9.370789116547991 12.693204771189233 9.439895918901794 12.474617319016 9.430023518565537 12.20635090043976 C 9.410278717893021 11.997699241547128 9.311554714530446 11.818854962496301 9.153596309150327 11.67975385656788 C 8.995637903770207 11.540652750639458 8.82780709805383 11.461166404394648 8.640231491664938 11.461166404394648 C 8.580997089647393 11.461166404394648 8.541507488302361 11.461166404394648 8.502017886957333 11.471102197675247 C 8.27495267922341 11.510845370797652 8.087377072834519 11.620139096884271 7.949163468126914 11.798983375935098 L 5.619276988770146 14.551198114661714 C 5.490935784398798 14.710170807151338 5.431701382381252 14.889015086202164 5.431701382381252 15.097666745094797 z M 6.19187620827308 19.787361173538706 C 6.19187620827308 19.906590692905922 6.221493409281853 20.01588441899254 6.27085541096314 20.105306558517952 C 6.349834613653199 20.313958217410587 6.497920618697061 20.47293090990021 6.705241025758469 20.57228884270622 C 6.813837429457301 20.62196780910923 6.922433833156133 20.641839395670434 7.031030236854967 20.641839395670434 C 7.149499040890056 20.641839395670434 7.258095444588889 20.62196780910923 7.337074647278948 20.57228884270622 C 7.564139855012871 20.48286670318081 7.722098260392991 20.34376559725239 7.80107746308305 20.16492131820156 C 7.899801466445625 19.94633386602833 7.9096738667818824 19.727746413855098 7.820822263755565 19.49922316840126 C 7.741843061065506 19.270699922947426 7.593757056021644 19.121663023738403 7.376564248623979 19.042176677493593 C 7.159371441226313 18.942818744687575 6.94217863382865 18.932882951406977 6.715113426094727 19.022305090932388 C 6.488048218360804 19.111727230457802 6.339962213316941 19.260764129666825 6.27085541096314 19.469415788559456 C 6.2116210089455945 19.55883792808487 6.19187620827308 19.668131654171486 6.19187620827308 19.787361173538706 z M 7.840567064428082 17.45244975259735 L 7.840567064428082 17.561743478683965 C 7.860311865100596 17.7803309308572 7.968908268799428 17.95917520990803 8.146611474852062 18.10821210911705 C 8.324314680904697 18.257249008326074 8.51189028729359 18.326799561290287 8.689593493346226 18.326799561290287 C 8.916658701080147 18.326799561290287 9.114106707805297 18.217505835203667 9.311554714530446 17.998918383030436 L 13.606048860802456 12.792562703995248 C 13.71464526450129 12.67333318462803 13.773879666518832 12.494488905577203 13.773879666518832 12.275901453403971 L 13.773879666518832 12.156671934036751 C 13.754134865846318 11.928148688582917 13.655410862483746 11.75924020281269 13.50732485743988 11.630074890164872 S 13.181535646343384 11.431359024552842 12.99396003995449 11.431359024552842 L 12.865618835583144 11.431359024552842 C 12.638553627849223 11.441294817833441 12.450978021460328 11.55058854392006 12.322636817088982 11.739368616251488 L 8.028142670816973 16.905981122164267 C 7.889929066109368 17.0848254012151 7.840567064428082 17.263669680265924 7.840567064428082 17.45244975259735 z M 11.305779582454461 18.595065979866526 C 11.305779582454461 18.68448811939194 11.325524383126975 18.78384605219795 11.365013984472007 18.893139778284567 C 11.453865587498324 19.111727230457802 11.601951592542186 19.270699922947426 11.819144399939848 19.36012206247284 C 11.957358004647453 19.399865235595247 12.05608200801003 19.419736822156448 12.125188810363833 19.419736822156448 C 12.26340241507144 19.419736822156448 12.381871219106527 19.389929442314642 12.460850421796588 19.34025047591164 C 12.678043229194252 19.250828336386224 12.836001634574371 19.111727230457802 12.914980837264434 18.922947158126373 C 13.013704840627005 18.75403867235615 13.023577240963265 18.535451220182914 12.934725637936948 18.257249008326074 C 12.855746435246886 18.048597349433443 12.707660430203026 17.90949624350502 12.500340023141616 17.820074103979607 L 12.144933611036349 17.730651964454193 C 12.05608200801003 17.750523551015398 11.957358004647453 17.7703951375766 11.829016800276108 17.800202517418406 C 11.611823992878444 17.879688863663215 11.46373798783458 18.028725762872238 11.38475878514452 18.237377421764872 C 11.335396783463233 18.36654273441269 11.305779582454461 18.48577225377991 11.305779582454461 18.595065979866526 z" width="0" height="0"/>
 </g>
</svg>