<svg width="25" height="19" xmlns="http://www.w3.org/2000/svg">

 <g width="0" height="0">
  <title width="0" height="0">Layer 1</title>
  <path fill="#ffffff" id="imagebot_2" d="M 0 12.250000104904174 C 0 12.000000104904174 0.10000000000000009 11.770000104904176 0.2999999999999998 11.560000104904175 C 0.52 11.370000104904175 0.7599999999999998 11.270000104904176 1 11.270000104904176 L 3.33 11.270000104904176 C 3.5999999999999996 11.270000104904176 3.8200000000000003 11.370000104904175 4 11.560000104904175 C 4.18 11.750000104904174 4.27 11.990000104904174 4.27 12.250000104904174 C 4.27 12.540000104904175 4.18 12.780000104904175 4 12.970000104904173 C 3.8200000000000003 13.160000104904174 3.59 13.260000104904176 3.33 13.260000104904176 L 1 13.260000104904176 C 0.73 13.260000104904176 0.5 13.160000104904174 0.2999999999999998 12.960000104904175 C 0.10000000000000009 12.750000104904174 0 12.510000104904174 0 12.250000104904174 z M 3.33 4.270000104904175 C 3.33 4.000000104904175 3.42 3.7700001049041747 3.59 3.590000104904175 C 3.8200000000000003 3.390000104904175 4.05 3.290000104904175 4.3 3.290000104904175 C 4.56 3.290000104904175 4.79 3.390000104904175 4.98 3.5800001049041743 L 6.619999999999999 5.230000104904175 C 6.8100000000000005 5.450000104904175 6.9 5.680000104904174 6.9 5.920000104904174 C 6.9 6.200000104904175 6.8100000000000005 6.4400001049041755 6.630000000000001 6.620000104904175 S 6.23 6.900000104904175 5.970000000000001 6.900000104904175 C 5.73 6.900000104904175 5.49 6.800000104904175 5.27 6.6100001049041754 L 3.59 5.000000104904174 C 3.42 4.790000104904175 3.33 4.540000104904175 3.33 4.270000104904175 z M 5.33 17.770000104904174 C 5.33 17.490000104904176 5.43 17.260000104904176 5.619999999999999 17.090000104904174 C 5.800000000000001 16.920000104904176 6.02 16.830000104904176 6.300000000000001 16.830000104904176 L 8.93 16.830000104904176 L 12.04 13.910000104904174 C 12.14 13.830000104904176 12.25 13.830000104904176 12.38 13.910000104904174 L 15.54 16.830000104904176 L 18.31 16.830000104904176 C 18.58 16.830000104904176 18.81 16.920000104904176 19 17.110000104904174 C 19.19 17.290000104904173 19.29 17.520000104904174 19.29 17.780000104904175 C 19.29 18.050000104904175 19.19 18.280000104904175 19 18.470000104904173 C 18.81 18.660000104904174 18.58 18.760000104904176 18.31 18.760000104904176 L 14.93 18.760000104904176 C 14.829999999999998 18.760000104904176 14.73 18.740000104904176 14.64 18.690000104904176 L 12.23 16.420000104904176 L 9.84 18.690000104904176 C 9.76 18.740000104904176 9.67 18.760000104904176 9.56 18.760000104904176 L 6.300000000000001 18.760000104904176 C 6.029999999999999 18.760000104904176 5.800000000000001 18.660000104904174 5.609999999999999 18.470000104904173 C 5.42 18.270000104904174 5.33 18.040000104904173 5.33 17.770000104904174 z M 6.25 12.250000104904174 C 6.25 13.220000104904173 6.460000000000001 14.100000104904176 6.869999999999999 14.890000104904175 C 6.890000000000001 15.010000104904176 6.98 15.070000104904175 7.120000000000001 15.070000104904175 L 9 15.070000104904175 C 9.07 15.070000104904175 9.120000000000001 15.040000104904173 9.15 14.990000104904176 C 9.18 14.930000104904174 9.17 14.870000104904175 9.13 14.800000104904175 C 8.49 14.030000104904175 8.17 13.180000104904174 8.17 12.250000104904174 C 8.17 11.130000104904175 8.57 10.170000104904174 9.37 9.380000104904175 C 10.17 8.590000104904174 11.13 8.200000104904175 12.26 8.200000104904175 C 13.379999999999999 8.200000104904175 14.329999999999998 8.590000104904174 15.120000000000001 9.380000104904175 C 15.91 10.170000104904174 16.31 11.120000104904175 16.31 12.250000104904174 C 16.31 13.190000104904176 15.989999999999998 14.040000104904173 15.36 14.800000104904175 C 15.32 14.870000104904175 15.309999999999999 14.930000104904174 15.329999999999998 14.990000104904176 S 15.399999999999999 15.070000104904175 15.48 15.070000104904175 L 17.38 15.070000104904175 C 17.51 15.070000104904175 17.59 15.010000104904176 17.61 14.890000104904175 C 18.05 14.120000104904175 18.25 13.240000104904176 18.25 12.250000104904174 C 18.25 11.440000104904176 18.09 10.660000104904174 17.77 9.930000104904174 C 17.45 9.190000104904176 17.02 8.560000104904175 16.49 8.020000104904176 C 15.96 7.4900001049041744 15.32 7.060000104904175 14.579999999999998 6.7400001049041744 C 13.84 6.420000104904174 13.07 6.270000104904176 12.26 6.270000104904176 C 11.45 6.270000104904176 10.67 6.430000104904174 9.93 6.7400001049041744 C 9.19 7.060000104904175 8.55 7.480000104904175 8.01 8.020000104904176 C 7.470000000000001 8.550000104904175 7.039999999999999 9.190000104904176 6.720000000000001 9.930000104904174 C 6.41 10.660000104904174 6.25 11.430000104904174 6.25 12.250000104904174 z M 11.28 3.290000104904175 L 11.28 0.9900001049041744 C 11.28 0.7000001049041749 11.37 0.4700001049041749 11.56 0.28000010490417493 S 11.99 1.0490417468034252e-7 12.27 1.0490417468034252e-7 C 12.55 1.0490417468034252e-7 12.78 0.09000010490417498 12.97 0.28000010490417493 S 13.25 0.7200001049041749 13.25 1.0000001049041751 L 13.25 3.300000104904175 C 13.25 3.590000104904175 13.16 3.8200001049041745 12.97 4.010000104904175 C 12.79 4.190000104904175 12.55 4.290000104904175 12.27 4.290000104904175 C 11.98 4.290000104904175 11.75 4.200000104904174 11.56 4.010000104904175 C 11.37 3.8200001049041745 11.28 3.5800001049041743 11.28 3.290000104904175 z M 17.63 5.930000104904174 C 17.63 5.680000104904174 17.72 5.450000104904175 17.9 5.2400001049041744 L 19.52 3.590000104904175 C 19.71 3.4000001049041746 19.95 3.300000104904175 20.22 3.300000104904175 C 20.49 3.300000104904175 20.73 3.4000001049041746 20.91 3.590000104904175 C 21.1 3.7800001049041745 21.19 4.010000104904175 21.19 4.2800001049041745 C 21.19 4.5700001049041745 21.1 4.810000104904175 20.93 5.010000104904174 L 19.25 6.620000104904175 C 19.04 6.810000104904175 18.8 6.910000104904174 18.55 6.910000104904174 C 18.28 6.910000104904174 18.06 6.8200001049041745 17.89 6.630000104904175 S 17.63 6.210000104904175 17.63 5.930000104904174 z M 20.24 12.250000104904174 C 20.24 11.980000104904175 20.33 11.750000104904174 20.51 11.560000104904175 C 20.69 11.370000104904175 20.91 11.270000104904176 21.17 11.270000104904176 L 23.52 11.270000104904176 C 23.79 11.270000104904176 24.02 11.370000104904175 24.21 11.560000104904175 C 24.4 11.750000104904174 24.5 11.990000104904174 24.5 12.250000104904174 C 24.5 12.530000104904175 24.4 12.760000104904176 24.21 12.960000104904175 S 23.79 13.260000104904176 23.52 13.260000104904176 L 21.17 13.260000104904176 C 20.9 13.260000104904176 20.68 13.160000104904174 20.5 12.970000104904173 C 20.33 12.770000104904176 20.24 12.530000104904175 20.24 12.250000104904174 z" width="0" height="0"/>
 </g>
</svg>